<?xml version="1.0" encoding="utf-8"?>
<!-- Generator: Adobe Illustrator 24.3.0, SVG Export Plug-In . SVG Version: 6.00 Build 0)  -->
<svg version="1.1" id="Layer_1" xmlns="http://www.w3.org/2000/svg" xmlns:xlink="http://www.w3.org/1999/xlink" x="0px" y="0px"
	 viewBox="0 0 425 425" enable-background="new 0 0 425 425" xml:space="preserve">
<g>
	<linearGradient id="SVGID_1_" gradientUnits="userSpaceOnUse" x1="-539.4329" y1="608.3999" x2="1468.5742" y2="-483.6021">
		<stop  offset="0" style="stop-color:#00C9FF"/>
		<stop  offset="1" style="stop-color:#3B72DE"/>
	</linearGradient>
	<path fill="url(#SVGID_1_)" d="M328.528,181.713h-85.542V96.471c0-2.695-2.186-4.881-4.881-4.881h-30.369
		c-2.696,0-4.881,2.186-4.881,4.881c0,2.696,2.185,4.881,4.881,4.881h25.488v80.361h-46.33c-2.696,0-4.881,2.186-4.881,4.881v17.27
		h-20.54c-1.744,0-3.355,0.93-4.228,2.44l-12.897,22.34l-8.671-15.019h8.136c2.696,0,4.881-2.185,4.881-4.881
		c0-2.695-2.185-4.881-4.881-4.881h-42.461V101.352h55.713c2.695,0,4.881-2.185,4.881-4.881c0-2.695-2.186-4.881-4.881-4.881H96.471
		c-2.696,0-4.881,2.186-4.881,4.881v112.274c0,2.696,2.185,4.881,4.881,4.881h27.935l15.715,27.221
		c0.872,1.51,2.484,2.441,4.228,2.441c1.744,0,3.355-0.931,4.227-2.441l15.716-27.221h17.722v85.243
		c0,2.695,2.185,4.881,4.881,4.881h10.864c2.696,0,4.881-2.185,4.881-4.881c0-2.696-2.186-4.881-4.881-4.881h-5.983v-85.238
		c0-0.002,0-0.003,0-0.004c0,0,0-0.001,0-0.003v-17.267h131.872v102.512h-42.462c-2.695,0-4.881,2.186-4.881,4.881
		c0,2.695,2.186,4.881,4.881,4.881h8.136l-8.67,15.018l-12.898-22.339c-0.872-1.51-2.483-2.441-4.227-2.441h-15.097
		c-2.695,0-4.881,2.186-4.881,4.881c0,2.695,2.186,4.881,4.881,4.881h12.279l15.715,27.22c0.873,1.51,2.483,2.44,4.228,2.44
		c1.744,0,3.355-0.931,4.227-2.44l15.716-27.22h27.935c2.696,0,4.881-2.185,4.881-4.881V186.594
		C333.409,183.899,331.224,181.713,328.528,181.713z"/>
	<linearGradient id="SVGID_2_" gradientUnits="userSpaceOnUse" x1="-495.2994" y1="689.548" x2="1512.6936" y2="-402.4464">
		<stop  offset="0" style="stop-color:#00C9FF"/>
		<stop  offset="1" style="stop-color:#3B72DE"/>
	</linearGradient>
	<path fill="url(#SVGID_2_)" d="M232.833,293.987h-19.477c-2.695,0-4.881,2.186-4.881,4.881c0,2.695,2.186,4.881,4.881,4.881h19.477
		c2.696,0,4.881-2.185,4.881-4.881C237.714,296.173,235.529,293.987,232.833,293.987z"/>
	<linearGradient id="SVGID_3_" gradientUnits="userSpaceOnUse" x1="-510.9577" y1="660.7516" x2="1497.0273" y2="-431.2385">
		<stop  offset="0" style="stop-color:#00C9FF"/>
		<stop  offset="1" style="stop-color:#3B72DE"/>
	</linearGradient>
	<path fill="url(#SVGID_3_)" d="M257.712,258.207c8.533,0,15.475-6.942,15.475-15.475c0-8.534-6.942-15.476-15.475-15.476
		c-8.533,0-15.475,6.942-15.475,15.476C242.237,251.264,249.178,258.207,257.712,258.207z M257.712,237.018
		c3.15,0,5.713,2.563,5.713,5.714c0,3.15-2.563,5.713-5.713,5.713c-3.15,0-5.713-2.563-5.713-5.713
		C251.999,239.581,254.561,237.018,257.712,237.018z"/>
	<linearGradient id="SVGID_4_" gradientUnits="userSpaceOnUse" x1="-521.2814" y1="641.7786" x2="1486.7198" y2="-450.2202">
		<stop  offset="0" style="stop-color:#00C9FF"/>
		<stop  offset="1" style="stop-color:#3B72DE"/>
	</linearGradient>
	<path fill="url(#SVGID_4_)" d="M227.975,242.731c0-8.534-6.942-15.476-15.475-15.476s-15.476,6.942-15.476,15.476
		c0,8.533,6.942,15.475,15.476,15.475S227.975,251.264,227.975,242.731z M206.786,242.731c0-3.151,2.562-5.714,5.713-5.714
		c3.15,0,5.713,2.563,5.713,5.714c0,3.15-2.562,5.713-5.713,5.713C209.349,248.444,206.786,245.881,206.786,242.731z"/>
	<linearGradient id="SVGID_5_" gradientUnits="userSpaceOnUse" x1="-500.6411" y1="679.7284" x2="1507.3523" y2="-412.2662">
		<stop  offset="0" style="stop-color:#00C9FF"/>
		<stop  offset="1" style="stop-color:#3B72DE"/>
	</linearGradient>
	<path fill="url(#SVGID_5_)" d="M318.399,242.731c0-8.534-6.942-15.476-15.476-15.476c-8.533,0-15.475,6.942-15.475,15.476
		c0,8.533,6.942,15.475,15.475,15.475C311.457,258.207,318.399,251.264,318.399,242.731z M297.21,242.731
		c0-3.151,2.562-5.714,5.713-5.714c3.151,0,5.713,2.563,5.713,5.714c0,3.15-2.562,5.713-5.713,5.713
		C299.773,248.444,297.21,245.881,297.21,242.731z"/>
	<linearGradient id="SVGID_6_" gradientUnits="userSpaceOnUse" x1="-589.5327" y1="516.267" x2="1418.4591" y2="-575.7267">
		<stop  offset="0" style="stop-color:#00C9FF"/>
		<stop  offset="1" style="stop-color:#3B72DE"/>
	</linearGradient>
	<path fill="url(#SVGID_6_)" d="M172.662,101.352h19.478c2.695,0,4.881-2.185,4.881-4.881c0-2.695-2.186-4.881-4.881-4.881h-19.478
		c-2.696,0-4.881,2.186-4.881,4.881C167.781,99.167,169.967,101.352,172.662,101.352z"/>
	<linearGradient id="SVGID_7_" gradientUnits="userSpaceOnUse" x1="-569.4214" y1="553.2486" x2="1438.5671" y2="-538.7434">
		<stop  offset="0" style="stop-color:#00C9FF"/>
		<stop  offset="1" style="stop-color:#3B72DE"/>
	</linearGradient>
	<path fill="url(#SVGID_7_)" d="M151.813,152.608c0,8.533,6.943,15.476,15.476,15.476c8.533,0,15.475-6.943,15.475-15.476
		c0-8.533-6.942-15.475-15.475-15.475C158.756,137.133,151.813,144.075,151.813,152.608z M167.288,146.895
		c3.15,0,5.713,2.563,5.713,5.713c0,3.15-2.562,5.714-5.713,5.714c-3.15,0-5.713-2.563-5.713-5.714
		C161.575,149.458,164.138,146.895,167.288,146.895z"/>
	<linearGradient id="SVGID_8_" gradientUnits="userSpaceOnUse" x1="-559.1053" y1="572.2256" x2="1448.8895" y2="-519.7698">
		<stop  offset="0" style="stop-color:#00C9FF"/>
		<stop  offset="1" style="stop-color:#3B72DE"/>
	</linearGradient>
	<path fill="url(#SVGID_8_)" d="M212.5,168.084c8.533,0,15.475-6.943,15.475-15.476c0-8.533-6.942-15.475-15.475-15.475
		c-8.533,0-15.475,6.942-15.475,15.475C197.025,161.141,203.967,168.084,212.5,168.084z M212.5,146.895
		c3.15,0,5.713,2.563,5.713,5.713c0,3.15-2.562,5.714-5.713,5.714c-3.15,0-5.713-2.563-5.713-5.714
		C206.787,149.458,209.35,146.895,212.5,146.895z"/>
	<linearGradient id="SVGID_9_" gradientUnits="userSpaceOnUse" x1="-579.7453" y1="534.2756" x2="1428.259" y2="-557.7249">
		<stop  offset="0" style="stop-color:#00C9FF"/>
		<stop  offset="1" style="stop-color:#3B72DE"/>
	</linearGradient>
	<path fill="url(#SVGID_9_)" d="M106.601,152.608c0,8.533,6.942,15.476,15.475,15.476c8.533,0,15.476-6.943,15.476-15.476
		c0-8.533-6.943-15.475-15.476-15.475C113.543,137.133,106.601,144.075,106.601,152.608z M127.79,152.608
		c0,3.15-2.563,5.714-5.713,5.714c-3.15,0-5.713-2.563-5.713-5.714c0-3.15,2.563-5.713,5.713-5.713
		C125.226,146.895,127.79,149.458,127.79,152.608z"/>
</g>
</svg>
