<svg width="24" height="24" viewBox="0 0 24 24" fill="none" xmlns="http://www.w3.org/2000/svg">
<path opacity="0.4" d="M16.24 3.65002H7.76004C5.29004 3.65002 3.29004 5.66002 3.29004 8.12002V17.53C3.29004 19.99 5.30004 22 7.76004 22H16.23C18.7 22 20.7 19.99 20.7 17.53V8.12002C20.71 5.65002 18.7 3.65002 16.24 3.65002Z" fill="#052941"/>
<path d="M14.35 2H9.65001C8.61001 2 7.76001 2.84 7.76001 3.88V4.82C7.76001 5.86 8.60001 6.7 9.64001 6.7H14.35C15.39 6.7 16.23 5.86 16.23 4.82V3.88C16.24 2.84 15.39 2 14.35 2Z" fill="#052941"/>
</svg>
