<svg width="28" height="28" viewBox="0 0 28 28" fill="none" xmlns="http://www.w3.org/2000/svg">
<path d="M0 14C0 6.26801 6.26801 0 14 0C21.732 0 28 6.26801 28 14C28 21.732 21.732 28 14 28C6.26801 28 0 21.732 0 14Z" fill="#24D6B6"/>
<path d="M13.25 20C13.25 20.1989 13.329 20.3897 13.4697 20.5303C13.6103 20.671 13.8011 20.75 14 20.75C14.1989 20.75 14.3897 20.671 14.5303 20.5303C14.671 20.3897 14.75 20.1989 14.75 20V14.75H20C20.1989 14.75 20.3897 14.671 20.5303 14.5303C20.671 14.3897 20.75 14.1989 20.75 14C20.75 13.8011 20.671 13.6103 20.5303 13.4697C20.3897 13.329 20.1989 13.25 20 13.25H14.75V8C14.75 7.80109 14.671 7.61032 14.5303 7.46967C14.3897 7.32902 14.1989 7.25 14 7.25C13.8011 7.25 13.6103 7.32902 13.4697 7.46967C13.329 7.61032 13.25 7.80109 13.25 8V13.25H8C7.80109 13.25 7.61032 13.329 7.46967 13.4697C7.32902 13.6103 7.25 13.8011 7.25 14C7.25 14.1989 7.32902 14.3897 7.46967 14.5303C7.61032 14.671 7.80109 14.75 8 14.75H13.25V20Z" fill="white"/>
</svg>
