<svg width="20" height="20" viewBox="0 0 20 20" fill="none" xmlns="http://www.w3.org/2000/svg">
<path d="M7.50081 8.33332C9.34176 8.33332 10.8341 6.84094 10.8341 4.99999C10.8341 3.15904 9.34176 1.66666 7.50081 1.66666C5.65986 1.66666 4.16748 3.15904 4.16748 4.99999C4.16748 6.84094 5.65986 8.33332 7.50081 8.33332Z" fill="#00A76F"/>
<path d="M7.50081 17.5008C10.7225 17.5008 13.3341 16.0084 13.3341 14.1675C13.3341 12.3265 10.7225 10.8342 7.50081 10.8342C4.27915 10.8342 1.66748 12.3265 1.66748 14.1675C1.66748 16.0084 4.27915 17.5008 7.50081 17.5008Z" fill="#00A76F"/>
<path d="M17.5 14.1667C17.5 15.5475 15.8033 16.6667 13.7325 16.6667C14.3425 16 14.7625 15.1625 14.7625 14.1683C14.7625 13.1725 14.3416 12.335 13.73 11.6675C15.8016 11.6667 17.5 12.7867 17.5 14.1667ZM15 4.99999C15.0002 5.40225 14.9034 5.79864 14.7178 6.1555C14.5321 6.51235 14.2631 6.81914 13.9335 7.0498C13.604 7.28047 13.2236 7.4282 12.8248 7.48046C12.4259 7.53272 12.0203 7.48797 11.6425 7.34999C12.0496 6.63377 12.263 5.82382 12.2616 4.99999C12.2616 4.14582 12.0366 3.34416 11.6433 2.65082C12.0211 2.51302 12.4266 2.46839 12.8254 2.52073C13.2241 2.57307 13.6043 2.72083 13.9338 2.95148C14.2632 3.18213 14.5322 3.48885 14.7178 3.84562C14.9034 4.20238 15.0002 4.59783 15 4.99999Z" fill="#00A76F"/>
</svg>
