<svg width="20" height="20" viewBox="0 0 20 20" fill="none" xmlns="http://www.w3.org/2000/svg">
<path d="M18.9583 18.3333C18.9583 18.675 18.675 18.9583 18.3333 18.9583H1.66666C1.32499 18.9583 1.04166 18.675 1.04166 18.3333C1.04166 17.9833 1.32499 17.7083 1.66666 17.7083H18.3333C18.675 17.7083 18.9583 17.9833 18.9583 18.3333Z" fill="#848484"/>
<path opacity="0.4" d="M17.5 8.31669V17.7084H2.45834L2.50001 8.30835C2.50001 7.80001 2.73334 7.31673 3.14168 7.00006L8.97501 2.46672C9.57501 1.99172 10.425 1.99172 11.025 2.46672L16.8583 7.00006C17.2667 7.31673 17.5 7.80002 17.5 8.31669Z" fill="#848484"/>
<path d="M11.25 6.875H8.75C8.40833 6.875 8.125 6.59167 8.125 6.25C8.125 5.90833 8.40833 5.625 8.75 5.625H11.25C11.5917 5.625 11.875 5.90833 11.875 6.25C11.875 6.59167 11.5917 6.875 11.25 6.875Z" fill="#848484"/>
<path d="M12.9167 9.16669H7.08334C6.39168 9.16669 5.83334 9.72502 5.83334 10.4167V18.3334H14.1667V10.4167C14.1667 9.72502 13.6083 9.16669 12.9167 9.16669ZM8.95834 14.7917C8.95834 15.1334 8.67501 15.4167 8.33334 15.4167C7.99168 15.4167 7.70834 15.1334 7.70834 14.7917V13.5417C7.70834 13.2 7.99168 12.9167 8.33334 12.9167C8.67501 12.9167 8.95834 13.2 8.95834 13.5417V14.7917Z" fill="#848484"/>
</svg>
