<svg width="20" height="20" viewBox="0 0 20 20" fill="none" xmlns="http://www.w3.org/2000/svg">
<path opacity="0.4" d="M15.5583 1.66667H13.975C12.1583 1.66667 11.2 2.625 11.2 4.44167V6.025C11.2 7.84167 12.1583 8.8 13.975 8.8H15.5583C17.375 8.8 18.3333 7.84167 18.3333 6.025V4.44167C18.3333 2.625 17.375 1.66667 15.5583 1.66667Z" fill="#646464"/>
<path opacity="0.4" d="M6.03332 11.1917H4.44999C2.62499 11.1917 1.66666 12.15 1.66666 13.9667V15.55C1.66666 17.375 2.62499 18.3333 4.44166 18.3333H6.02499C7.84166 18.3333 8.79999 17.375 8.79999 15.5583V13.975C8.80832 12.15 7.84999 11.1917 6.03332 11.1917Z" fill="#646464"/>
<path d="M5.24166 8.81667C7.21607 8.81667 8.81666 7.21608 8.81666 5.24167C8.81666 3.26725 7.21607 1.66667 5.24166 1.66667C3.26724 1.66667 1.66666 3.26725 1.66666 5.24167C1.66666 7.21608 3.26724 8.81667 5.24166 8.81667Z" fill="#646464"/>
<path d="M14.7583 18.3333C16.7327 18.3333 18.3333 16.7328 18.3333 14.7583C18.3333 12.7839 16.7327 11.1833 14.7583 11.1833C12.7839 11.1833 11.1833 12.7839 11.1833 14.7583C11.1833 16.7328 12.7839 18.3333 14.7583 18.3333Z" fill="#646464"/>
</svg>
