<svg width="36" height="37" viewBox="0 0 36 37" fill="none" xmlns="http://www.w3.org/2000/svg">
<g clip-path="url(#clip0_512_47701)">
<path d="M20.772 0.5C21.3022 0.5 21.8107 0.710507 22.1857 1.08526L32.7137 11.6053C33.0891 11.9805 33.3 12.4894 33.3 13.0201V32.3C33.3 34.6196 31.382 36.5 29.016 36.5H6.98401C4.61802 36.5 2.70001 34.6196 2.70001 32.3L2.70001 4.7C2.70001 2.3804 4.61802 0.5 6.98401 0.5L20.772 0.5Z" fill="#22C55E"/>
<g filter="url(#filter0_d_512_47701)">
<path d="M31.5549 11.3391C31.8679 11.6547 31.6443 12.1912 31.1999 12.1912H26.1C23.7804 12.1912 21.6879 10.151 21.6879 7.88929V2.60534C21.6879 2.1589 22.2285 1.93626 22.5429 2.25323L31.5549 11.3391Z" fill="white" fill-opacity="0.24" shape-rendering="crispEdges"/>
</g>
<path fill-rule="evenodd" clip-rule="evenodd" d="M15.2666 14.9H15.3334C16.6866 14.9 17.7467 14.9 18.5742 15.0113C19.4205 15.125 20.0886 15.363 20.6131 15.8869C21.1376 16.4114 21.375 17.0795 21.4887 17.9263C21.6 18.7532 21.6 19.8134 21.6 21.1666V21.2182C21.6 22.3369 21.6 23.2523 21.5391 23.9978C21.4781 24.7479 21.3533 25.3732 21.0731 25.8936C20.9501 26.1228 20.7977 26.3285 20.6131 26.5131C20.0886 27.0376 19.4205 27.275 18.5737 27.3886C17.7467 27.5 16.6866 27.5 15.3334 27.5H15.2666C13.9134 27.5 12.8533 27.5 12.0258 27.3886C11.1795 27.275 10.5114 27.037 9.9869 26.5131C9.52217 26.0484 9.28189 25.4699 9.15472 24.7514C9.02872 24.0464 9.00586 23.1691 9.00117 22.0802C9 21.803 9 21.51 9 21.2006V21.1666C9 19.8134 9 18.7532 9.11135 17.9258C9.22504 17.0795 9.46298 16.4114 9.9869 15.8869C10.5114 15.3624 11.1795 15.125 12.0263 15.0113C12.8533 14.9 13.9134 14.9 15.2666 14.9ZM12.143 15.8822C11.394 15.983 10.9422 16.1752 10.6087 16.5087C10.2747 16.8427 10.083 17.294 9.98221 18.0435C9.88024 18.8054 9.87907 19.8064 9.87907 21.2C9.87907 21.51 9.87907 21.8013 9.88024 22.0761C9.88493 23.1744 9.90954 23.9784 10.0197 24.5979C10.1276 25.2044 10.3116 25.5942 10.6087 25.8913C10.9427 26.2253 11.394 26.417 12.1436 26.5178C12.9054 26.6198 13.9064 26.6209 15.3 26.6209C16.6936 26.6209 17.6946 26.6198 18.4564 26.5178C19.206 26.417 19.6578 26.2248 19.9919 25.8913C20.115 25.7682 20.2152 25.6323 20.299 25.477C20.4935 25.116 20.6055 24.6331 20.6629 23.9269C20.7203 23.2207 20.7209 22.3404 20.7209 21.2C20.7209 19.8064 20.7198 18.8054 20.6178 18.0435C20.517 17.294 20.3248 16.8422 19.9913 16.5081C19.6573 16.1746 19.206 15.983 18.4564 15.8822C17.6946 15.7802 16.6936 15.7791 15.3 15.7791C13.9064 15.7791 12.9048 15.7802 12.143 15.8822Z" fill="white"/>
<path d="M20.7203 21.9501L20.5902 21.9325C18.9235 21.7016 17.398 22.5678 16.6215 23.8741C15.6194 21.3394 12.9722 19.6106 10.0144 20.0355L9.882 20.0542C9.87907 20.4041 9.87907 20.7845 9.87907 21.2C9.87907 21.51 9.87907 21.8013 9.88024 22.0761C9.88493 23.1744 9.90954 23.9784 10.0197 24.5979C10.1276 25.2044 10.3116 25.5942 10.6087 25.8913C10.9427 26.2253 11.394 26.417 12.1436 26.5178C12.9054 26.6198 13.9064 26.6209 15.3 26.6209C16.6936 26.6209 17.6946 26.6198 18.4564 26.5178C19.206 26.417 19.6578 26.2248 19.9919 25.8913C20.115 25.7682 20.2152 25.6323 20.299 25.477C20.4935 25.116 20.6055 24.6331 20.6629 23.9269C20.7075 23.3842 20.7174 22.7383 20.7203 21.9501Z" fill="white"/>
<path d="M18.8163 18.8558C18.8163 19.1667 18.6928 19.4648 18.473 19.6846C18.2532 19.9044 17.955 20.0279 17.6442 20.0279C17.3333 20.0279 17.0352 19.9044 16.8154 19.6846C16.5956 19.4648 16.4721 19.1667 16.4721 18.8558C16.4721 18.5449 16.5956 18.2468 16.8154 18.027C17.0352 17.8072 17.3333 17.6837 17.6442 17.6837C17.955 17.6837 18.2532 17.8072 18.473 18.027C18.6928 18.2468 18.8163 18.5449 18.8163 18.8558Z" fill="white"/>
</g>
<defs>
<filter id="filter0_d_512_47701" x="19.6879" y="2.10434" width="14.013" height="14.0869" filterUnits="userSpaceOnUse" color-interpolation-filters="sRGB">
<feFlood flood-opacity="0" result="BackgroundImageFix"/>
<feColorMatrix in="SourceAlpha" type="matrix" values="0 0 0 0 0 0 0 0 0 0 0 0 0 0 0 0 0 0 127 0" result="hardAlpha"/>
<feOffset dy="2"/>
<feGaussianBlur stdDeviation="1"/>
<feComposite in2="hardAlpha" operator="out"/>
<feColorMatrix type="matrix" values="0 0 0 0 0 0 0 0 0 0 0 0 0 0 0 0 0 0 0.04 0"/>
<feBlend mode="normal" in2="BackgroundImageFix" result="effect1_dropShadow_512_47701"/>
<feBlend mode="normal" in="SourceGraphic" in2="effect1_dropShadow_512_47701" result="shape"/>
</filter>
<clipPath id="clip0_512_47701">
<rect width="36" height="36" fill="white" transform="translate(0 0.5)"/>
</clipPath>
</defs>
</svg>
