<svg width="20" height="20" viewBox="0 0 20 20" fill="none" xmlns="http://www.w3.org/2000/svg">
<path d="M9.99999 1.66669C7.81666 1.66669 6.04166 3.44169 6.04166 5.62502C6.04166 7.76669 7.71666 9.50002 9.89999 9.57502C9.96666 9.56669 10.0333 9.56669 10.0833 9.57502C10.1 9.57502 10.1083 9.57502 10.125 9.57502C10.1333 9.57502 10.1333 9.57502 10.1417 9.57502C12.275 9.50002 13.95 7.76669 13.9583 5.62502C13.9583 3.44169 12.1833 1.66669 9.99999 1.66669Z" fill="#848484"/>
<path opacity="0.4" d="M14.2333 11.8C11.9083 10.25 8.11666 10.25 5.775 11.8C4.71666 12.5 4.13333 13.4583 4.13333 14.4833C4.13333 15.5083 4.71666 16.4583 5.76666 17.1583C6.93333 17.9417 8.46666 18.3333 10 18.3333C11.5333 18.3333 13.0667 17.9417 14.2333 17.1583C15.2833 16.45 15.8667 15.5 15.8667 14.4667C15.8583 13.45 15.2833 12.4917 14.2333 11.8Z" fill="#848484"/>
<path d="M9.47499 16.05C9.34166 16.05 9.20833 15.9917 9.10833 15.9L8.05833 14.85C7.85833 14.65 7.85833 14.3167 8.05833 14.1167C8.25833 13.9167 8.59166 13.9167 8.79166 14.1167L9.47499 14.8L11.2083 13.0667C11.4083 12.8667 11.7417 12.8667 11.9417 13.0667C12.1417 13.2667 12.1417 13.6 11.9417 13.8L9.84166 15.9C9.74166 16 9.60832 16.05 9.47499 16.05Z" fill="#848484"/>
</svg>
