<svg width="33" height="32" viewBox="0 0 33 32" fill="none" xmlns="http://www.w3.org/2000/svg">
<path fill-rule="evenodd" clip-rule="evenodd" d="M16.4998 13.6669C16.7651 13.6669 17.0194 13.7722 17.2069 13.9597C17.3945 14.1473 17.4998 14.4016 17.4998 14.6669V16.3335H19.1665C19.4317 16.3335 19.6861 16.4389 19.8736 16.6264C20.0611 16.8139 20.1665 17.0683 20.1665 17.3335C20.1665 17.5987 20.0611 17.8531 19.8736 18.0406C19.6861 18.2282 19.4317 18.3335 19.1665 18.3335H17.4998V20.0002C17.4998 20.2654 17.3945 20.5198 17.2069 20.7073C17.0194 20.8948 16.7651 21.0002 16.4998 21.0002C16.2346 21.0002 15.9803 20.8948 15.7927 20.7073C15.6052 20.5198 15.4998 20.2654 15.4998 20.0002V18.3335H13.8332C13.568 18.3335 13.3136 18.2282 13.1261 18.0406C12.9385 17.8531 12.8332 17.5987 12.8332 17.3335C12.8332 17.0683 12.9385 16.8139 13.1261 16.6264C13.3136 16.4389 13.568 16.3335 13.8332 16.3335H15.4998V14.6669C15.4998 14.4016 15.6052 14.1473 15.7927 13.9597C15.9803 13.7722 16.2346 13.6669 16.4998 13.6669Z" fill="#919EAB"/>
<path fill-rule="evenodd" clip-rule="evenodd" d="M13.5372 28.0002H19.4625C23.6238 28.0002 25.7052 28.0002 27.1998 27.0202C27.8448 26.5975 28.4002 26.052 28.8345 25.4149C29.8332 23.9482 29.8332 21.9042 29.8332 17.8189C29.8332 13.7322 29.8332 11.6895 28.8345 10.2229C28.4002 9.58567 27.8448 9.04019 27.1998 8.61752C26.2398 7.98685 25.0372 7.76152 23.1958 7.68152C22.3172 7.68152 21.5612 7.02818 21.3892 6.18152C21.2577 5.56134 20.9162 5.00557 20.4223 4.60812C19.9284 4.21067 19.3124 3.99593 18.6785 4.00018H14.3212C13.0038 4.00018 11.8692 4.91352 11.6105 6.18152C11.4385 7.02818 10.6825 7.68152 9.80384 7.68152C7.96384 7.76152 6.76117 7.98818 5.79984 8.61752C5.15533 9.04027 4.60034 9.58575 4.1665 10.2229C3.1665 11.6895 3.1665 13.7322 3.1665 17.8189C3.1665 21.9042 3.1665 23.9469 4.16517 25.4149C4.59717 26.0495 5.15184 26.5949 5.79984 27.0202C7.2945 28.0002 9.37584 28.0002 13.5372 28.0002ZM21.8332 17.3335C21.8332 18.748 21.2713 20.1046 20.2711 21.1048C19.2709 22.1049 17.9143 22.6669 16.4998 22.6669C15.0854 22.6669 13.7288 22.1049 12.7286 21.1048C11.7284 20.1046 11.1665 18.748 11.1665 17.3335C11.1665 15.919 11.7284 14.5625 12.7286 13.5623C13.7288 12.5621 15.0854 12.0002 16.4998 12.0002C17.9143 12.0002 19.2709 12.5621 20.2711 13.5623C21.2713 14.5625 21.8332 15.919 21.8332 17.3335ZM24.4998 12.3335C24.2346 12.3335 23.9803 12.4389 23.7927 12.6264C23.6052 12.8139 23.4998 13.0683 23.4998 13.3335C23.4998 13.5987 23.6052 13.8531 23.7927 14.0406C23.9803 14.2282 24.2346 14.3335 24.4998 14.3335H25.8332C26.0984 14.3335 26.3527 14.2282 26.5403 14.0406C26.7278 13.8531 26.8332 13.5987 26.8332 13.3335C26.8332 13.0683 26.7278 12.8139 26.5403 12.6264C26.3527 12.4389 26.0984 12.3335 25.8332 12.3335H24.4998Z" fill="#919EAB"/>
</svg>
