<svg width="20" height="20" viewBox="0 0 20 20" fill="none" xmlns="http://www.w3.org/2000/svg">
<path d="M17.4167 6.38333L16.7667 6.775L16.3583 7.025L15.5833 7.48333L3.96667 14.45L3.89167 14.4917L3.45 14.7583L2.94167 15.0667C2.64167 14.325 2.5 13.3917 2.5 12.25V7.75C2.5 4 4 2.5 7.75 2.5H12.25C15.5083 2.5 17.0667 3.63333 17.4167 6.38333Z" fill="#848484" fill-opacity="0.94"/>
<path opacity="0.4" d="M17.5 7.66669V12.25C17.5 16 16 17.5 12.25 17.5H7.75002C5.71669 17.5 4.34169 17.0584 3.52502 16.05L3.77502 15.9L4.28336 15.5917L4.72502 15.325L4.80002 15.2834L16.4167 8.31669L17.1917 7.85835L17.5 7.66669Z" fill="#848484" fill-opacity="0.94"/>
</svg>
