<svg width="20" height="20" viewBox="0 0 20 20" fill="none" xmlns="http://www.w3.org/2000/svg">
<path opacity="0.4" d="M8.95834 2.04166C9.54167 1.55 10.4833 1.55 11.05 2.04166L12.3667 3.16666C12.6167 3.375 13.0917 3.55 13.425 3.55H14.8417C15.725 3.55 16.45 4.275 16.45 5.15833V6.575C16.45 6.90833 16.625 7.375 16.8333 7.625L17.9583 8.94166C18.45 9.525 18.45 10.4667 17.9583 11.0333L16.8333 12.35C16.625 12.6 16.45 13.0667 16.45 13.4V14.8167C16.45 15.7 15.725 16.425 14.8417 16.425H13.425C13.0917 16.425 12.625 16.6 12.375 16.8083L11.0583 17.9333C10.475 18.425 9.53334 18.425 8.96667 17.9333L7.65 16.8083C7.4 16.6 6.925 16.425 6.6 16.425H5.14167C4.25834 16.425 3.53334 15.7 3.53334 14.8167V13.3917C3.53334 13.0667 3.36667 12.5917 3.15834 12.35L2.03334 11.025C1.55 10.45 1.55 9.51666 2.03334 8.94166L3.15834 7.61666C3.36667 7.36666 3.53334 6.9 3.53334 6.575V5.16666C3.53334 4.28333 4.25834 3.55833 5.14167 3.55833H6.58334C6.91667 3.55833 7.38334 3.38333 7.63334 3.175L8.95834 2.04166Z" fill="#848484"/>
<path d="M9.99999 14.0583C9.54166 14.0583 9.16666 13.6833 9.16666 13.225C9.16666 12.7667 9.53332 12.3917 9.99999 12.3917C10.4583 12.3917 10.8333 12.7667 10.8333 13.225C10.8333 13.6833 10.4667 14.0583 9.99999 14.0583Z" fill="#848484"/>
<path d="M10 11.4334C9.65833 11.4334 9.375 11.15 9.375 10.8084V6.77502C9.375 6.43336 9.65833 6.15002 10 6.15002C10.3417 6.15002 10.625 6.43336 10.625 6.77502V10.8C10.625 11.15 10.35 11.4334 10 11.4334Z" fill="#848484"/>
</svg>
