<svg width="4" height="13" viewBox="0 0 4 13" fill="none" xmlns="http://www.w3.org/2000/svg">
<path d="M2.00033 7.83333C2.73671 7.83333 3.33366 7.23638 3.33366 6.5C3.33366 5.76362 2.73671 5.16667 2.00033 5.16667C1.26395 5.16667 0.666992 5.76362 0.666992 6.5C0.666992 7.23638 1.26395 7.83333 2.00033 7.83333Z" fill="#3A3A3A"/>
<path d="M2.00033 3.16667C2.73671 3.16667 3.33366 2.56971 3.33366 1.83333C3.33366 1.09695 2.73671 0.5 2.00033 0.5C1.26395 0.5 0.666992 1.09695 0.666992 1.83333C0.666992 2.56971 1.26395 3.16667 2.00033 3.16667Z" fill="#3A3A3A"/>
<path d="M2.00033 12.5C2.73671 12.5 3.33366 11.903 3.33366 11.1667C3.33366 10.4303 2.73671 9.83333 2.00033 9.83333C1.26395 9.83333 0.666992 10.4303 0.666992 11.1667C0.666992 11.903 1.26395 12.5 2.00033 12.5Z" fill="#3A3A3A"/>
</svg>
