<svg width="20" height="20" viewBox="0 0 20 20" fill="none" xmlns="http://www.w3.org/2000/svg">
<g clip-path="url(#clip0_362_31706)">
<path d="M11.172 0C11.7022 0 12.2107 0.210507 12.5857 0.585255L17.9137 5.90924C18.2891 6.28436 18.5 6.79329 18.5 7.32398V17.6667C18.5 18.9553 17.4344 20 16.12 20H3.88C2.56556 20 1.5 18.9553 1.5 17.6667V2.33333C1.5 1.04467 2.56556 0 3.88 0H11.172Z" fill="#FFCD66"/>
<g filter="url(#filter0_d_362_31706)">
<path d="M17.1548 5.64399C17.4678 5.95955 17.2443 6.49609 16.7998 6.49609H14.5C13.2113 6.49609 12.0488 5.36261 12.0488 4.10613V1.71021C12.0488 1.26377 12.5894 1.04114 12.9038 1.3581L17.1548 5.64399Z" fill="white" fill-opacity="0.24" shape-rendering="crispEdges"/>
</g>
<path opacity="0.48" d="M11.215 8.23242H10.4584C10.4043 8.23242 10.3773 8.25576 10.3503 8.27909C10.3232 8.30242 10.3232 8.34909 10.3232 8.39576C10.3773 8.48909 10.4043 8.60576 10.4043 8.69909V11.7324L10.4854 12.1991C10.4854 12.2458 10.5394 12.2691 10.5664 12.2924C10.5935 12.2924 10.6205 12.3158 10.6205 12.3158L10.7556 12.3858C11.188 12.5258 11.4582 12.8758 11.4582 13.2491V14.2991C11.4582 14.3458 11.4852 14.3924 11.5392 14.3924C11.5663 14.3924 11.5663 14.4158 11.5933 14.4158C11.6203 14.4158 11.6473 14.4158 11.6743 14.3924C11.8905 14.2524 11.9986 14.0658 11.9986 13.8324V8.93242C12.0256 8.53576 11.6743 8.23242 11.215 8.23242Z" fill="white"/>
<path d="M7.56717 8.56C7.59419 8.49 7.64823 8.46667 7.70228 8.46667H7.9725C8.02654 8.46667 8.08059 8.49 8.10761 8.56L8.26974 9.09667L8.48592 8.7L8.16165 8.04667V8H7.43206V8.04667L7.16184 8.7L7.37801 9.14333L7.56717 8.56Z" fill="white"/>
<path d="M7.81021 8.69994L7.45892 9.74994C7.40488 9.84328 7.4319 9.95994 7.51297 10.0299C7.62105 10.1233 8.02639 10.1233 8.13447 10.0299C8.21554 9.95994 8.24256 9.84328 8.21554 9.74994L7.86425 8.69994H7.81021Z" fill="white"/>
<path d="M10.6746 12.5967L10.4855 12.5267C10.2693 12.4567 10.1072 12.2933 10.1072 12.0833V8.7C10.1072 8.30333 9.75589 8 9.29652 8H8.43181L8.7831 8.65333C8.81012 8.67667 8.81012 8.72333 8.7831 8.74667L8.43181 9.33C8.43181 9.35333 8.40479 9.37667 8.37777 9.37667L8.48585 9.68C8.56692 9.84333 8.51288 10.0533 8.35074 10.1933C8.24266 10.2867 8.0535 10.3333 7.83732 10.3333C7.62115 10.3333 7.43199 10.2867 7.3239 10.1933C7.16177 10.0533 7.10773 9.84333 7.18879 9.68L7.29688 9.4C7.24284 9.4 7.18879 9.37667 7.16177 9.33L6.89155 8.74667V8.65333L7.16177 8H5.81066C5.35129 8 5 8.30333 5 8.7V14.3C5 14.6967 5.35129 15 5.81066 15H10.4044C10.8638 15 11.2151 14.6967 11.2151 14.3V13.25C11.2151 12.9467 10.9989 12.69 10.6746 12.5967ZM7.5671 14.0667H7.29688C7.21581 14.0667 7.16177 14.02 7.16177 13.95C7.16177 13.88 7.21581 13.8333 7.29688 13.8333H7.5671C7.64817 13.8333 7.70221 13.88 7.70221 13.95C7.70221 14.02 7.64817 14.0667 7.5671 14.0667ZM7.5671 13.6H7.29688C7.21581 13.6 7.16177 13.5533 7.16177 13.4833C7.16177 13.4133 7.21581 13.3667 7.29688 13.3667H7.5671C7.64817 13.3667 7.70221 13.4133 7.70221 13.4833C7.70221 13.5533 7.64817 13.6 7.5671 13.6ZM7.5671 13.1333H7.29688C7.21581 13.1333 7.16177 13.0867 7.16177 13.0167C7.16177 12.9467 7.21581 12.9 7.29688 12.9H7.5671C7.64817 12.9 7.70221 12.9467 7.70221 13.0167C7.70221 13.0867 7.64817 13.1333 7.5671 13.1333ZM7.5671 12.6667H7.29688C7.21581 12.6667 7.16177 12.62 7.16177 12.55C7.16177 12.48 7.21581 12.4333 7.29688 12.4333H7.5671C7.64817 12.4333 7.70221 12.48 7.70221 12.55C7.70221 12.62 7.64817 12.6667 7.5671 12.6667ZM7.5671 12.2H7.29688C7.21581 12.2 7.16177 12.1533 7.16177 12.0833C7.16177 12.0133 7.21581 11.9667 7.29688 11.9667H7.5671C7.64817 11.9667 7.70221 12.0133 7.70221 12.0833C7.70221 12.1533 7.64817 12.2 7.5671 12.2ZM7.5671 11.7333H7.29688C7.21581 11.7333 7.16177 11.6867 7.16177 11.6167C7.16177 11.5467 7.21581 11.5 7.29688 11.5H7.5671C7.64817 11.5 7.70221 11.5467 7.70221 11.6167C7.70221 11.6867 7.64817 11.7333 7.5671 11.7333ZM7.5671 11.2667H7.29688C7.21581 11.2667 7.16177 11.22 7.16177 11.15C7.16177 11.08 7.21581 11.0333 7.29688 11.0333H7.5671C7.64817 11.0333 7.70221 11.08 7.70221 11.15C7.70221 11.22 7.64817 11.2667 7.5671 11.2667ZM7.5671 10.8H7.29688C7.21581 10.8 7.16177 10.7533 7.16177 10.6833C7.16177 10.6133 7.21581 10.5667 7.29688 10.5667H7.5671C7.64817 10.5667 7.70221 10.6133 7.70221 10.6833C7.70221 10.7533 7.64817 10.8 7.5671 10.8ZM8.37777 13.8333H8.10754C8.02648 13.8333 7.97243 13.7867 7.97243 13.7167C7.97243 13.6467 8.02648 13.6 8.10754 13.6H8.37777C8.45883 13.6 8.51288 13.6467 8.51288 13.7167C8.51288 13.7867 8.45883 13.8333 8.37777 13.8333ZM8.37777 13.3667H8.10754C8.02648 13.3667 7.97243 13.32 7.97243 13.25C7.97243 13.18 8.02648 13.1333 8.10754 13.1333H8.37777C8.45883 13.1333 8.51288 13.18 8.51288 13.25C8.51288 13.32 8.45883 13.3667 8.37777 13.3667ZM8.37777 12.9H8.10754C8.02648 12.9 7.97243 12.8533 7.97243 12.7833C7.97243 12.7133 8.02648 12.6667 8.10754 12.6667H8.37777C8.45883 12.6667 8.51288 12.7133 8.51288 12.7833C8.51288 12.8533 8.45883 12.9 8.37777 12.9ZM8.37777 12.4333H8.10754C8.02648 12.4333 7.97243 12.3867 7.97243 12.3167C7.97243 12.2467 8.02648 12.2 8.10754 12.2H8.37777C8.45883 12.2 8.51288 12.2467 8.51288 12.3167C8.51288 12.3867 8.45883 12.4333 8.37777 12.4333ZM8.37777 11.9667H8.10754C8.02648 11.9667 7.97243 11.92 7.97243 11.85C7.97243 11.78 8.02648 11.7333 8.10754 11.7333H8.37777C8.45883 11.7333 8.51288 11.78 8.51288 11.85C8.51288 11.92 8.45883 11.9667 8.37777 11.9667ZM8.37777 11.5H8.10754C8.02648 11.5 7.97243 11.4533 7.97243 11.3833C7.97243 11.3133 8.02648 11.2667 8.10754 11.2667H8.37777C8.45883 11.2667 8.51288 11.3133 8.51288 11.3833C8.51288 11.4533 8.45883 11.5 8.37777 11.5ZM8.37777 11.0333H8.10754C8.02648 11.0333 7.97243 10.9867 7.97243 10.9167C7.97243 10.8467 8.02648 10.8 8.10754 10.8H8.37777C8.45883 10.8 8.51288 10.8467 8.51288 10.9167C8.51288 10.9867 8.45883 11.0333 8.37777 11.0333Z" fill="white"/>
</g>
<defs>
<filter id="filter0_d_362_31706" x="10.0488" y="1.20898" width="9.25195" height="9.28711" filterUnits="userSpaceOnUse" color-interpolation-filters="sRGB">
<feFlood flood-opacity="0" result="BackgroundImageFix"/>
<feColorMatrix in="SourceAlpha" type="matrix" values="0 0 0 0 0 0 0 0 0 0 0 0 0 0 0 0 0 0 127 0" result="hardAlpha"/>
<feOffset dy="2"/>
<feGaussianBlur stdDeviation="1"/>
<feComposite in2="hardAlpha" operator="out"/>
<feColorMatrix type="matrix" values="0 0 0 0 0 0 0 0 0 0 0 0 0 0 0 0 0 0 0.04 0"/>
<feBlend mode="normal" in2="BackgroundImageFix" result="effect1_dropShadow_362_31706"/>
<feBlend mode="normal" in="SourceGraphic" in2="effect1_dropShadow_362_31706" result="shape"/>
</filter>
<clipPath id="clip0_362_31706">
<rect width="20" height="20" fill="white"/>
</clipPath>
</defs>
</svg>
