<svg width="20" height="20" viewBox="0 0 20 20" fill="none" xmlns="http://www.w3.org/2000/svg">
<path d="M16.825 11.7166L15.8834 10.15C15.675 9.80831 15.4917 9.14998 15.4917 8.74998V7.19165C15.4917 4.16665 13.0334 1.70831 10.0167 1.70831C6.99169 1.71665 4.53336 4.16665 4.53336 7.19165V8.74165C4.53336 9.14165 4.35003 9.79998 4.15003 10.1416L3.20836 11.7083C2.85003 12.3166 2.76669 13.0083 2.99169 13.6083C3.21669 14.2166 3.72503 14.7 4.39169 14.9166C5.29169 15.2166 6.20003 15.4333 7.12503 15.5916C7.21669 15.6083 7.30836 15.6166 7.40003 15.6333C7.51669 15.65 7.64169 15.6666 7.76669 15.6833C7.98336 15.7166 8.20003 15.7416 8.42503 15.7583C8.95003 15.8083 9.48336 15.8333 10.0167 15.8333C10.5417 15.8333 11.0667 15.8083 11.5834 15.7583C11.775 15.7416 11.9667 15.725 12.15 15.7C12.3 15.6833 12.45 15.6666 12.6 15.6416C12.6917 15.6333 12.7834 15.6166 12.875 15.6C13.8084 15.45 14.7334 15.2166 15.6334 14.9166C16.275 14.7 16.7667 14.2166 17 13.6C17.2334 12.975 17.1667 12.2916 16.825 11.7166ZM10.625 8.33331C10.625 8.68331 10.3417 8.96665 9.99169 8.96665C9.64169 8.96665 9.35836 8.68331 9.35836 8.33331V5.74998C9.35836 5.39998 9.64169 5.11665 9.99169 5.11665C10.3417 5.11665 10.625 5.39998 10.625 5.74998V8.33331Z" fill="#848484" fill-opacity="0.94"/>
<path d="M12.3584 16.675C12.0084 17.6417 11.0834 18.3334 10 18.3334C9.34169 18.3334 8.69169 18.0667 8.23336 17.5917C7.96669 17.3417 7.76669 17.0084 7.65002 16.6667C7.75836 16.6834 7.86669 16.6917 7.98336 16.7084C8.17502 16.7334 8.37502 16.7584 8.57502 16.775C9.05002 16.8167 9.53336 16.8417 10.0167 16.8417C10.4917 16.8417 10.9667 16.8167 11.4334 16.775C11.6084 16.7584 11.7834 16.75 11.95 16.725C12.0834 16.7084 12.2167 16.6917 12.3584 16.675Z" fill="#848484" fill-opacity="0.94"/>
</svg>
