<svg width="20" height="20" viewBox="0 0 20 20" fill="none" xmlns="http://www.w3.org/2000/svg">
<path d="M11.172 0C11.7022 0 12.2107 0.210507 12.5857 0.585255L17.9137 5.90924C18.2891 6.28436 18.5 6.79329 18.5 7.32398V17.6667C18.5 18.9553 17.4344 20 16.12 20H3.88C2.56556 20 1.5 18.9553 1.5 17.6667V2.33333C1.5 1.04467 2.56556 0 3.88 0H11.172Z" fill="#E94848"/>
<g filter="url(#filter0_d_362_31700)">
<path d="M17.1548 5.64399C17.4678 5.95955 17.2443 6.49609 16.7998 6.49609H14.5C13.2113 6.49609 12.0488 5.36261 12.0488 4.10613V1.71021C12.0488 1.26377 12.5894 1.04114 12.9038 1.3581L17.1548 5.64399Z" fill="white" fill-opacity="0.24" shape-rendering="crispEdges"/>
</g>
<path d="M8.03333 7.99609C7.60654 7.99609 7.25556 8.34708 7.25556 8.77387C7.25556 9.30443 7.55035 9.9631 7.86076 10.5822C7.61812 11.3418 7.34278 12.1558 6.99063 12.8426C6.26986 13.1254 5.62708 13.3356 5.24062 13.6471C5.2346 13.6533 5.22892 13.6598 5.22361 13.6666C5.08239 13.811 5 14.0076 5 14.2183C5 14.6451 5.35099 14.9961 5.77778 14.9961C5.9859 14.9961 6.18678 14.9184 6.33194 14.7701C6.33697 14.7662 6.34183 14.7621 6.34653 14.7579C6.631 14.4182 6.96642 13.802 7.26528 13.2388C7.95406 12.9679 8.67596 12.6922 9.37257 12.5266C9.8811 12.9365 10.6168 13.2072 11.2222 13.2072C11.649 13.2072 12 12.8562 12 12.4294C12 12.0026 11.649 11.6516 11.2222 11.6516C10.7367 11.6516 10.0311 11.825 9.49167 12.0065C9.05439 11.596 8.65264 11.0833 8.36389 10.5385C8.5702 9.9029 8.81111 9.26696 8.81111 8.77387C8.81111 8.34708 8.46012 7.99609 8.03333 7.99609ZM8.03333 8.46276C8.20792 8.46276 8.34444 8.59929 8.34444 8.77387C8.34444 9.00732 8.21944 9.43712 8.07465 9.89922C7.88119 9.44968 7.72222 9.01839 7.72222 8.77387C7.72222 8.59929 7.85875 8.46276 8.03333 8.46276ZM8.16701 11.1242C8.40094 11.4963 8.67492 11.8426 8.97396 12.1499C8.51271 12.276 8.06225 12.4376 7.61771 12.6069C7.83242 12.1223 8.0043 11.6194 8.16701 11.1242ZM11.2222 12.1183C11.3968 12.1183 11.5333 12.2548 11.5333 12.4294C11.5333 12.604 11.3968 12.7405 11.2222 12.7405C10.8717 12.7405 10.3736 12.5823 9.97535 12.3614C10.4325 12.2321 10.9312 12.1183 11.2222 12.1183ZM6.57986 13.511C6.36114 13.9014 6.14373 14.2658 5.99167 14.4492C5.93972 14.4989 5.87062 14.5294 5.77778 14.5294C5.60319 14.5294 5.46667 14.3929 5.46667 14.2183C5.46667 14.1362 5.50158 14.0546 5.54931 14.002C5.73176 13.8608 6.1287 13.6916 6.57986 13.511Z" fill="white"/>
<defs>
<filter id="filter0_d_362_31700" x="10.0488" y="1.20898" width="9.25195" height="9.28711" filterUnits="userSpaceOnUse" color-interpolation-filters="sRGB">
<feFlood flood-opacity="0" result="BackgroundImageFix"/>
<feColorMatrix in="SourceAlpha" type="matrix" values="0 0 0 0 0 0 0 0 0 0 0 0 0 0 0 0 0 0 127 0" result="hardAlpha"/>
<feOffset dy="2"/>
<feGaussianBlur stdDeviation="1"/>
<feComposite in2="hardAlpha" operator="out"/>
<feColorMatrix type="matrix" values="0 0 0 0 0 0 0 0 0 0 0 0 0 0 0 0 0 0 0.04 0"/>
<feBlend mode="normal" in2="BackgroundImageFix" result="effect1_dropShadow_362_31700"/>
<feBlend mode="normal" in="SourceGraphic" in2="effect1_dropShadow_362_31700" result="shape"/>
</filter>
</defs>
</svg>
