<svg width="20" height="20" viewBox="0 0 20 20" fill="none" xmlns="http://www.w3.org/2000/svg">
<path opacity="0.5" d="M18.3335 11.6667V10C18.3335 9.30083 18.3226 8.05417 18.3118 7.5H1.67181C1.66097 8.05417 1.67181 9.30083 1.67181 10V11.6667C1.67181 14.8092 1.67181 16.3808 2.64681 17.3567C3.62431 18.3333 5.19514 18.3333 8.33681 18.3333H11.6701C14.8118 18.3333 16.3818 18.3333 17.3585 17.3567C18.3335 16.3808 18.3335 14.8092 18.3335 11.6667Z" fill="#A9ABAD"/>
<path d="M5.80033 1.66699C6.14866 1.66699 6.43033 1.92533 6.43033 2.24366V3.40866C6.98866 3.39866 7.61533 3.39866 8.32033 3.39866H11.6803C12.3853 3.39866 13.0112 3.39866 13.5703 3.40866V2.24366C13.5703 1.92533 13.852 1.66699 14.2003 1.66699C14.5487 1.66699 14.8303 1.92533 14.8303 2.24366V3.45866C16.0387 3.54699 16.8328 3.76533 17.4162 4.29866C17.9995 4.83283 18.237 5.55949 18.3337 6.66699V7.50033H1.66699V6.66699C1.76366 5.55949 2.00116 4.83366 2.58449 4.29866C3.16783 3.76533 3.96116 3.54699 5.17033 3.45866V2.24366C5.17033 1.92533 5.45283 1.66699 5.80033 1.66699Z" fill="#292D32"/>
<path d="M15.0003 13.7503C15.0003 14.0818 14.8686 14.3998 14.6342 14.6342C14.3998 14.8686 14.0818 15.0003 13.7503 15.0003C13.4188 15.0003 13.1009 14.8686 12.8664 14.6342C12.632 14.3998 12.5003 14.0818 12.5003 13.7503C12.5003 13.4188 12.632 13.1009 12.8664 12.8664C13.1009 12.632 13.4188 12.5003 13.7503 12.5003C14.0818 12.5003 14.3998 12.632 14.6342 12.8664C14.8686 13.1009 15.0003 13.4188 15.0003 13.7503Z" fill="#292D32"/>
</svg>
