<svg width="24" height="24" viewBox="0 0 24 24" fill="none" xmlns="http://www.w3.org/2000/svg">
<path opacity="0.4" d="M12 2C6.47715 2 2 6.47715 2 12C2 17.5228 6.47715 22 12 22C17.5228 22 22 17.5228 22 12C22 6.47715 17.5228 2 12 2Z" fill="#052941"/>
<path d="M12 8.98996C12.19 8.98996 12.38 9.05996 12.53 9.20996L16.06 12.74C16.35 13.03 16.35 13.51 16.06 13.8C15.77 14.09 15.29 14.09 15 13.8L12 10.8L9.00003 13.8C8.71003 14.09 8.23003 14.09 7.94003 13.8C7.65003 13.51 7.65003 13.03 7.94003 12.74L11.47 9.20996C11.62 9.05996 11.81 8.98996 12 8.98996Z" fill="#052941"/>
</svg>
