<svg width="23" height="22" viewBox="0 0 23 22" fill="none" xmlns="http://www.w3.org/2000/svg">
<path d="M20.3329 11.79C20.1756 13.4922 19.5368 15.1144 18.4912 16.4668C17.4455 17.8192 16.0364 18.8458 14.4286 19.4265C12.8208 20.0073 11.0809 20.1181 9.41241 19.7461C7.74393 19.3741 6.2159 18.5345 5.00713 17.3258C3.79837 16.117 2.95885 14.589 2.58682 12.9205C2.21478 11.252 2.32563 9.51208 2.90637 7.9043C3.48711 6.29651 4.51374 4.88737 5.86612 3.84175C7.2185 2.79614 8.84071 2.15731 10.5429 2C9.54632 3.34827 9.06676 5.00945 9.19144 6.68141C9.31612 8.35338 10.0368 9.92506 11.2223 11.1106C12.4079 12.2961 13.9795 13.0168 15.6515 13.1415C17.3235 13.2662 18.9846 12.7866 20.3329 11.79Z" fill="#052941" stroke="#052941" stroke-width="4" stroke-linecap="round" stroke-linejoin="round"/>
</svg>
