<svg width="20" height="20" viewBox="0 0 20 20" fill="none" xmlns="http://www.w3.org/2000/svg">
<path opacity="0.4" d="M18.3334 8.12496C17.9917 8.12496 17.7084 7.84163 17.7084 7.49996V5.83329C17.7084 3.68329 16.3167 2.29163 14.1667 2.29163H5.83335C3.68335 2.29163 2.29169 3.68329 2.29169 5.83329V7.49996C2.29169 7.84163 2.00835 8.12496 1.66669 8.12496C1.32502 8.12496 1.04169 7.84163 1.04169 7.49996V5.83329C1.04169 2.96663 2.96669 1.04163 5.83335 1.04163H14.1667C17.0334 1.04163 18.9584 2.96663 18.9584 5.83329V7.49996C18.9584 7.84163 18.675 8.12496 18.3334 8.12496Z" fill="#848484" fill-opacity="0.94"/>
<path opacity="0.4" d="M14.1667 18.9583H5.83335C2.96669 18.9583 1.04169 17.0333 1.04169 14.1667V12.5C1.04169 12.1583 1.32502 11.875 1.66669 11.875C2.00835 11.875 2.29169 12.1583 2.29169 12.5V14.1667C2.29169 16.3167 3.68335 17.7083 5.83335 17.7083H14.1667C16.3167 17.7083 17.7084 16.3167 17.7084 14.1667V12.5C17.7084 12.1583 17.9917 11.875 18.3334 11.875C18.675 11.875 18.9584 12.1583 18.9584 12.5V14.1667C18.9584 17.0333 17.0334 18.9583 14.1667 18.9583Z" fill="#848484" fill-opacity="0.94"/>
<path d="M13.6666 6.84174L10.5333 5.15005C10.2 4.97505 9.80831 4.97505 9.47497 5.15005L6.34164 6.84174C6.11664 6.96674 5.97498 7.20837 5.97498 7.48337C5.97498 7.75837 6.11664 8.00006 6.34164 8.12506L9.47497 9.81675C9.64164 9.90841 9.82497 9.95006 10.0083 9.95006C10.1916 9.95006 10.375 9.90841 10.5416 9.81675L13.675 8.12506C13.9 8.00006 14.0416 7.75837 14.0416 7.48337C14.0333 7.20837 13.8916 6.96674 13.6666 6.84174Z" fill="#848484" fill-opacity="0.94"/>
<path d="M8.95003 10.3916L6.03337 8.93326C5.80837 8.82493 5.55002 8.83329 5.33336 8.96663C5.11669 9.09996 4.9917 9.32494 4.9917 9.57494V12.3333C4.9917 12.8083 5.25837 13.2416 5.68337 13.45L8.60003 14.9083C8.70003 14.9583 8.80837 14.9833 8.92503 14.9833C9.05837 14.9833 9.18336 14.9499 9.30003 14.8749C9.5167 14.7416 9.6417 14.5166 9.6417 14.2666V11.5083C9.6417 11.0333 9.38337 10.6083 8.95003 10.3916Z" fill="#848484" fill-opacity="0.94"/>
<path d="M14.6583 8.96663C14.4416 8.83329 14.1833 8.82493 13.9583 8.93326L11.0416 10.3916C10.6166 10.6083 10.35 11.0333 10.35 11.5083V14.2666C10.35 14.5166 10.475 14.7416 10.6916 14.8749C10.8083 14.9499 10.9333 14.9833 11.0666 14.9833C11.175 14.9833 11.2833 14.9583 11.3916 14.9083L14.3083 13.45C14.7333 13.2333 15 12.8083 15 12.3333V9.57494C15 9.32494 14.875 9.09996 14.6583 8.96663Z" fill="#848484" fill-opacity="0.94"/>
</svg>
