<svg width="18" height="18" viewBox="0 0 18 18" fill="none" xmlns="http://www.w3.org/2000/svg">
<path opacity="0.4" d="M15.75 16.5H2.25C1.9425 16.5 1.6875 16.245 1.6875 15.9375C1.6875 15.63 1.9425 15.375 2.25 15.375H15.75C16.0575 15.375 16.3125 15.63 16.3125 15.9375C16.3125 16.245 16.0575 16.5 15.75 16.5Z" fill="#14AE5C"/>
<path opacity="0.4" d="M14.2649 2.61C12.8099 1.155 11.3849 1.1175 9.89243 2.61L8.98493 3.5175C8.90993 3.5925 8.87993 3.7125 8.90993 3.8175C9.47993 5.805 11.0699 7.395 13.0574 7.965C13.0874 7.9725 13.1174 7.98 13.1474 7.98C13.2299 7.98 13.3049 7.95 13.3649 7.89L14.2649 6.9825C15.0074 6.2475 15.3674 5.535 15.3674 4.815C15.3749 4.0725 15.0149 3.3525 14.2649 2.61Z" fill="#14AE5C"/>
<path d="M11.7073 8.6476C11.4898 8.5426 11.2798 8.4376 11.0773 8.3176C10.9123 8.2201 10.7548 8.1151 10.5973 8.0026C10.4698 7.9201 10.3198 7.8001 10.1773 7.6801C10.1623 7.6726 10.1098 7.6276 10.0498 7.5676C9.80225 7.3576 9.52475 7.0876 9.27725 6.7876C9.25475 6.7726 9.21725 6.7201 9.16475 6.6526C9.08975 6.5626 8.96225 6.4126 8.84975 6.2401C8.75975 6.1276 8.65475 5.9626 8.55725 5.7976C8.43725 5.5951 8.33225 5.3926 8.22725 5.1826C8.12225 4.9576 8.03975 4.7401 7.96475 4.5376L3.25475 9.2476C3.15725 9.3451 3.06725 9.5326 3.04475 9.6601L2.63975 12.5326C2.56475 13.0426 2.70725 13.5226 3.02225 13.8451C3.29225 14.1076 3.66725 14.2501 4.07225 14.2501C4.16225 14.2501 4.25225 14.2426 4.34225 14.2276L7.22225 13.8226C7.35725 13.8001 7.54475 13.7101 7.63475 13.6126L12.3448 8.9026C12.1348 8.8276 11.9323 8.7451 11.7073 8.6476Z" fill="#14AE5C"/>
</svg>
