<svg width="16" height="15" viewBox="0 0 16 15" fill="none" xmlns="http://www.w3.org/2000/svg">
<path fill-rule="evenodd" clip-rule="evenodd" d="M15.5 7.5C15.5 11.6423 12.1423 15 8 15C3.85775 15 0.5 11.6423 0.5 7.5C0.5 3.35775 3.85775 0 8 0C12.1423 0 15.5 3.35775 15.5 7.5ZM11.0225 5.2275C11.1278 5.33297 11.187 5.47594 11.187 5.625C11.187 5.77406 11.1278 5.91703 11.0225 6.0225L7.2725 9.7725C7.16703 9.87784 7.02406 9.93701 6.875 9.93701C6.72594 9.93701 6.58297 9.87784 6.4775 9.7725L4.9775 8.2725C4.92223 8.221 4.87791 8.1589 4.84716 8.0899C4.81642 8.0209 4.79989 7.94642 4.79856 7.87089C4.79722 7.79536 4.81112 7.72034 4.83941 7.6503C4.8677 7.58026 4.90981 7.51664 4.96322 7.46322C5.01664 7.40981 5.08026 7.3677 5.1503 7.33941C5.22034 7.31112 5.29536 7.29722 5.37089 7.29856C5.44642 7.29989 5.5209 7.31642 5.5899 7.34716C5.6589 7.37791 5.721 7.42224 5.7725 7.4775L6.875 8.58L8.55125 6.90375L10.2275 5.2275C10.333 5.12216 10.4759 5.06299 10.625 5.06299C10.7741 5.06299 10.917 5.12216 11.0225 5.2275Z" fill="#34C759"/>
</svg>
