<svg width="18" height="16" viewBox="0 0 18 16" fill="none" xmlns="http://www.w3.org/2000/svg">
<path d="M17.5441 7.16652C17.5441 7.07485 17.4923 6.98319 17.4664 6.89152C17.4264 6.7298 17.3745 6.57106 17.3111 6.41652C17.2679 6.31652 17.2075 6.21652 17.1557 6.10819C17.1039 5.99985 17.0263 5.85819 16.9486 5.74152C16.8709 5.62485 16.7674 5.56652 16.7674 5.49985C16.7674 5.43319 16.5948 5.29152 16.4999 5.19152C16.4049 5.09152 16.3187 5.02485 16.2237 4.94152L15.9044 4.66652L15.5938 4.46652C15.4718 4.39445 15.3449 4.33042 15.2141 4.27485L14.8775 4.12485C14.7365 4.07444 14.5924 4.03269 14.446 3.99985C14.33 3.96691 14.2118 3.94185 14.0922 3.92485H13.9369C13.6045 2.92424 12.954 2.05019 12.078 1.42684C11.2019 0.80349 10.1447 0.46253 9.05657 0.452382C7.96841 0.442234 6.90461 0.763413 6.01623 1.37031C5.12786 1.9772 4.46008 2.83896 4.10772 3.83319H3.95239C3.83278 3.85018 3.71456 3.87524 3.59858 3.90819C3.45216 3.94103 3.30805 3.98277 3.16709 4.03319L2.83054 4.18319C2.69965 4.23875 2.57279 4.30278 2.45083 4.37485L2.14017 4.66652L1.82087 4.92485C1.72595 5.00819 1.63102 5.08319 1.54472 5.17485C1.45843 5.26652 1.3635 5.38319 1.2772 5.48319C1.19091 5.58319 1.12187 5.67485 1.05283 5.78319C0.983797 5.89152 0.91476 6.02485 0.845723 6.14985C0.776686 6.27485 0.733538 6.35819 0.69039 6.45819C0.626912 6.61273 0.575001 6.77147 0.535057 6.93319C0.535057 7.02485 0.474649 7.11652 0.45739 7.20819C0.403676 7.46898 0.37479 7.73397 0.371094 7.99985C0.375139 8.25427 0.401118 8.50793 0.44876 8.75819C0.44876 8.84152 0.491909 8.91652 0.509168 8.99985C0.551822 9.16357 0.603676 9.32492 0.664501 9.48319L0.768057 9.72485C0.844022 9.88555 0.930493 10.0414 1.02695 10.1915L1.14776 10.3749C1.16018 10.3982 1.17461 10.4205 1.19091 10.4415L1.23406 10.4999C1.63597 11.0173 2.15713 11.4374 2.75627 11.7266C3.3554 12.0159 4.01606 12.1665 4.68591 12.1665C4.68784 11.7252 4.87094 11.3026 5.19506 10.9915C5.51724 10.6785 5.95483 10.5017 6.41183 10.4999C6.7154 10.4971 7.01392 10.5749 7.2748 10.7249V7.99985C7.2748 7.55783 7.45664 7.1339 7.78031 6.82134C8.10398 6.50878 8.54298 6.33319 9.00072 6.33319C9.45847 6.33319 9.89746 6.50878 10.2211 6.82134C10.5448 7.1339 10.7267 7.55783 10.7267 7.99985V10.8082C10.9889 10.6613 11.2865 10.5837 11.5896 10.5832C12.0571 10.5874 12.5039 10.7702 12.8323 11.0915C13.1228 11.3815 13.2945 11.7635 13.3155 12.1665C13.9854 12.1665 14.646 12.0159 15.2452 11.7266C15.8443 11.4374 16.3655 11.0173 16.7674 10.4999L16.8105 10.4582C16.8268 10.4372 16.8413 10.4149 16.8537 10.3915L16.9745 10.2082C17.071 10.0581 17.1574 9.90222 17.2334 9.74152L17.3369 9.49985C17.3978 9.34158 17.4496 9.18023 17.4923 9.01652C17.4923 8.93319 17.5354 8.85819 17.5527 8.77485C17.6013 8.51911 17.6273 8.25985 17.6304 7.99985C17.6294 7.72004 17.6005 7.44098 17.5441 7.16652Z" fill="#1877F2"/>
<path d="M10.9942 11.6499L9.86369 12.6999V7.99985C9.86369 7.77884 9.77277 7.56688 9.61093 7.4106C9.44909 7.25432 9.2296 7.16652 9.00072 7.16652C8.77185 7.16652 8.55235 7.25432 8.39052 7.4106C8.22868 7.56688 8.13776 7.77884 8.13776 7.99985V12.6582L7.02454 11.5749C6.94408 11.4972 6.84856 11.4355 6.74343 11.3935C6.6383 11.3514 6.52562 11.3298 6.41183 11.3298C6.29805 11.3298 6.18537 11.3514 6.08024 11.3935C5.97511 11.4355 5.87959 11.4972 5.79913 11.5749C5.71867 11.6526 5.65484 11.7448 5.6113 11.8463C5.56775 11.9478 5.54534 12.0566 5.54534 12.1665C5.54534 12.2764 5.56775 12.3852 5.6113 12.4867C5.65484 12.5882 5.71867 12.6805 5.79913 12.7582L8.38802 15.2582C8.46866 15.3354 8.56429 15.3965 8.66943 15.438C8.77457 15.4795 8.88715 15.5005 9.00072 15.4999C9.22291 15.499 9.43619 15.4154 9.59617 15.2665L12.1851 12.8499C12.2766 12.7769 12.3516 12.6865 12.4053 12.5842C12.4591 12.482 12.4904 12.3702 12.4973 12.2557C12.5042 12.1413 12.4866 12.0267 12.4456 11.9191C12.4046 11.8115 12.341 11.7133 12.2589 11.6305C12.1767 11.5477 12.0778 11.4822 11.9682 11.4381C11.8587 11.3939 11.7409 11.372 11.6221 11.3739C11.5034 11.3757 11.3864 11.4011 11.2784 11.4486C11.1703 11.4961 11.0736 11.5646 10.9942 11.6499Z" fill="#1877F2"/>
<path d="M17.5441 7.16652C17.5441 7.07485 17.4923 6.98319 17.4664 6.89152C17.4264 6.7298 17.3745 6.57106 17.3111 6.41652C17.2679 6.31652 17.2075 6.21652 17.1557 6.10819C17.1039 5.99985 17.0263 5.85819 16.9486 5.74152C16.8709 5.62485 16.7674 5.56652 16.7674 5.49985C16.7674 5.43319 16.5948 5.29152 16.4999 5.19152C16.4049 5.09152 16.3187 5.02485 16.2237 4.94152L15.9044 4.66652L15.5938 4.46652C15.4718 4.39445 15.3449 4.33042 15.2141 4.27485L14.8775 4.12485C14.7365 4.07444 14.5924 4.03269 14.446 3.99985C14.33 3.96691 14.2118 3.94185 14.0922 3.92485H13.9369C13.6045 2.92424 12.954 2.05019 12.078 1.42684C11.2019 0.80349 10.1447 0.46253 9.05657 0.452382C7.96841 0.442234 6.90461 0.763413 6.01623 1.37031C5.12786 1.9772 4.46008 2.83896 4.10772 3.83319H3.95239C3.83278 3.85018 3.71456 3.87524 3.59858 3.90819C3.45216 3.94103 3.30805 3.98277 3.16709 4.03319L2.83054 4.18319C2.69965 4.23875 2.57279 4.30278 2.45083 4.37485L2.14017 4.66652L1.82087 4.92485C1.72595 5.00819 1.63102 5.08319 1.54472 5.17485C1.45843 5.26652 1.3635 5.38319 1.2772 5.48319C1.19091 5.58319 1.12187 5.67485 1.05283 5.78319C0.983797 5.89152 0.91476 6.02485 0.845723 6.14985C0.776686 6.27485 0.733538 6.35819 0.69039 6.45819C0.626912 6.61273 0.575001 6.77147 0.535057 6.93319C0.535057 7.02485 0.474649 7.11652 0.45739 7.20819C0.403676 7.46898 0.37479 7.73397 0.371094 7.99985C0.375139 8.25427 0.401118 8.50793 0.44876 8.75819C0.44876 8.84152 0.491909 8.91652 0.509168 8.99985C0.551822 9.16357 0.603676 9.32492 0.664501 9.48319L0.768057 9.72485C0.844022 9.88555 0.930493 10.0414 1.02695 10.1915L1.14776 10.3749C1.16018 10.3982 1.17461 10.4205 1.19091 10.4415L1.23406 10.4999C1.63597 11.0173 2.15713 11.4374 2.75627 11.7266C3.3554 12.0159 4.01606 12.1665 4.68591 12.1665C4.68784 11.7252 4.87094 11.3026 5.19506 10.9915C5.51724 10.6785 5.95483 10.5017 6.41183 10.4999C6.7154 10.4971 7.01392 10.5749 7.2748 10.7249V7.99985C7.2748 7.55783 7.45664 7.1339 7.78031 6.82134C8.10398 6.50878 8.54298 6.33319 9.00072 6.33319C9.45847 6.33319 9.89746 6.50878 10.2211 6.82134C10.5448 7.1339 10.7267 7.55783 10.7267 7.99985V10.8082C10.9889 10.6613 11.2865 10.5837 11.5896 10.5832C12.0571 10.5874 12.5039 10.7702 12.8323 11.0915C13.1228 11.3815 13.2945 11.7635 13.3155 12.1665C13.9854 12.1665 14.646 12.0159 15.2452 11.7266C15.8443 11.4374 16.3655 11.0173 16.7674 10.4999L16.8105 10.4582C16.8268 10.4372 16.8413 10.4149 16.8537 10.3915L16.9745 10.2082C17.071 10.0581 17.1574 9.90222 17.2334 9.74152L17.3369 9.49985C17.3978 9.34158 17.4496 9.18023 17.4923 9.01652C17.4923 8.93319 17.5354 8.85819 17.5527 8.77485C17.6013 8.51911 17.6273 8.25985 17.6304 7.99985C17.6294 7.72004 17.6005 7.44098 17.5441 7.16652Z" fill="#1877F2"/>
<path d="M10.9942 11.6499L9.86369 12.6999V7.99985C9.86369 7.77884 9.77277 7.56688 9.61093 7.4106C9.44909 7.25432 9.2296 7.16652 9.00072 7.16652C8.77185 7.16652 8.55235 7.25432 8.39052 7.4106C8.22868 7.56688 8.13776 7.77884 8.13776 7.99985V12.6582L7.02454 11.5749C6.94408 11.4972 6.84856 11.4355 6.74343 11.3935C6.6383 11.3514 6.52562 11.3298 6.41183 11.3298C6.29805 11.3298 6.18537 11.3514 6.08024 11.3935C5.97511 11.4355 5.87959 11.4972 5.79913 11.5749C5.71867 11.6526 5.65484 11.7448 5.6113 11.8463C5.56775 11.9478 5.54534 12.0566 5.54534 12.1665C5.54534 12.2764 5.56775 12.3852 5.6113 12.4867C5.65484 12.5882 5.71867 12.6805 5.79913 12.7582L8.38802 15.2582C8.46866 15.3354 8.56429 15.3965 8.66943 15.438C8.77457 15.4795 8.88715 15.5005 9.00072 15.4999C9.22291 15.499 9.43619 15.4154 9.59617 15.2665L12.1851 12.8499C12.2766 12.7769 12.3516 12.6865 12.4053 12.5842C12.4591 12.482 12.4904 12.3702 12.4973 12.2557C12.5042 12.1413 12.4866 12.0267 12.4456 11.9191C12.4046 11.8115 12.341 11.7133 12.2589 11.6305C12.1767 11.5477 12.0778 11.4822 11.9682 11.4381C11.8587 11.3939 11.7409 11.372 11.6221 11.3739C11.5034 11.3757 11.3864 11.4011 11.2784 11.4486C11.1703 11.4961 11.0736 11.5646 10.9942 11.6499Z" fill="#1877F2"/>
</svg>
