<svg width="16" height="16" viewBox="0 0 16 16" fill="none" xmlns="http://www.w3.org/2000/svg">
<path d="M8.00016 10.3342C7.84439 10.3345 7.69343 10.2802 7.57349 10.1808L3.57349 6.84751C3.28999 6.61186 3.25118 6.19101 3.48682 5.90751C3.72247 5.624 4.14332 5.5852 4.42682 5.82084L8.00016 8.80751L11.5735 5.92751C11.7112 5.81566 11.8879 5.76333 12.0643 5.7821C12.2407 5.80087 12.4024 5.88919 12.5135 6.02751C12.6369 6.16608 12.697 6.34982 12.6793 6.53455C12.6616 6.71927 12.5677 6.88825 12.4202 7.00084L8.42016 10.2208C8.29677 10.3045 8.14889 10.3444 8.00016 10.3342Z" fill="#052941"/>
</svg>
