<svg width="19" height="18" viewBox="0 0 19 18" fill="none" xmlns="http://www.w3.org/2000/svg">
<path d="M7.99986 14.25C7.82462 14.2504 7.65479 14.1893 7.51986 14.0775C7.36648 13.9504 7.27 13.7674 7.2517 13.569C7.23341 13.3706 7.29481 13.1731 7.42236 13.02L10.7824 9.00002L7.54236 4.97252C7.41653 4.81757 7.35766 4.61886 7.37877 4.42038C7.39989 4.2219 7.49925 4.04002 7.65486 3.91502C7.81173 3.77699 8.01908 3.71066 8.22694 3.73202C8.4348 3.75337 8.62433 3.86048 8.74986 4.02752L12.3724 8.52752C12.5998 8.80427 12.5998 9.20327 12.3724 9.48002L8.62236 13.98C8.46976 14.1641 8.23853 14.2644 7.99986 14.25Z" fill="#212B36"/>
</svg>
