<svg width="25" height="24" viewBox="0 0 25 24" fill="none" xmlns="http://www.w3.org/2000/svg">
<path d="M3.39934 1.06863C5.34067 0.927089 7.28776 1.03265 9.22813 1.13293C9.53809 1.15836 9.86868 1.16316 10.1417 1.33157C10.4334 1.50383 10.6148 1.8277 10.6383 2.16261C10.6657 2.48745 10.6911 2.82092 10.6191 3.14191C10.5174 3.53584 10.1273 3.79206 9.73625 3.82853C8.04683 3.96 6.35116 3.99358 4.65741 3.99071C4.64158 5.70124 4.61183 7.4137 4.48276 9.11992C4.43046 9.52873 4.12146 9.92601 3.69683 9.98215C3.36144 10.0196 3.01981 10.0042 2.68634 9.95384C2.37254 9.91306 2.08705 9.70626 1.95414 9.41933C1.83227 9.17942 1.81691 8.90641 1.8006 8.64347C1.68161 6.66279 1.60867 4.67492 1.73055 2.69281C1.74542 2.22595 1.96613 1.7706 2.32744 1.4736C2.62156 1.21354 3.01213 1.08927 3.39934 1.06863Z" fill="#C2C6CE"/>
<path d="M16.1331 1.13101C18.063 1.03121 20 0.928048 21.9303 1.06863C22.341 1.08975 22.756 1.23081 23.0525 1.52398C23.4138 1.83922 23.5851 2.32047 23.6043 2.79069C23.7133 4.66245 23.6485 6.539 23.5333 8.40884C23.5002 8.74615 23.5367 9.10457 23.3759 9.41549C23.2416 9.70242 22.958 9.90874 22.6447 9.9524C22.2978 10.0057 21.9413 10.0225 21.593 9.97687C21.2388 9.9121 20.9639 9.60502 20.8771 9.26483C20.795 8.93567 20.7902 8.59405 20.7682 8.25722C20.6938 6.83649 20.6741 5.41288 20.6688 3.99023C19.132 3.97103 17.5923 3.96767 16.0578 3.86164C15.8026 3.84292 15.5396 3.84868 15.2963 3.75943C14.9864 3.64908 14.7306 3.36791 14.6884 3.03635C14.6467 2.69952 14.6596 2.35646 14.7119 2.02107C14.7661 1.66121 15.0416 1.35604 15.3827 1.23945C15.6236 1.1574 15.8812 1.14972 16.1331 1.13101Z" fill="#C2C6CE"/>
<path d="M2.36102 14.1724C2.66378 14.0083 3.01933 14.0112 3.35424 14.004C3.62054 14.0001 3.9137 14.0251 4.11954 14.2146C4.38872 14.4324 4.4938 14.7856 4.50819 15.12C4.62527 16.7447 4.64158 18.3746 4.64926 20.0026C6.26431 20.0141 7.88129 20.0309 9.49299 20.1489C9.8658 20.1672 10.2736 20.2871 10.4963 20.6091C10.6959 20.896 10.6681 21.264 10.658 21.5961C10.6445 21.9291 10.598 22.2961 10.336 22.5331C10.0361 22.8565 9.56352 22.8412 9.15904 22.8647C7.37221 22.9894 5.57866 23.0307 3.78847 22.9635C3.44492 22.9367 3.08842 22.9491 2.76503 22.8119C2.25018 22.5912 1.84762 22.1047 1.75981 21.5476C1.72479 21.3418 1.72191 21.1326 1.70943 20.9253C1.61347 18.9734 1.68976 17.0182 1.82603 15.0706C1.84474 14.7098 2.03331 14.3432 2.36102 14.1724Z" fill="#C2C6CE"/>
<path d="M21.2326 14.1944C21.4648 14.0006 21.7839 13.9996 22.0709 14.0049C22.4082 14.014 22.7738 14.0279 23.0602 14.229C23.3606 14.4396 23.5017 14.812 23.5108 15.1694C23.6355 17.2297 23.7243 19.2992 23.5938 21.3619C23.552 22.1325 22.9182 22.8282 22.1486 22.9184C21.4543 22.9904 20.7552 22.976 20.0585 23C18.5668 22.9765 17.0731 22.9544 15.5862 22.8206C15.2344 22.7831 14.9135 22.5461 14.7767 22.2198C14.6783 21.9607 14.675 21.6781 14.6649 21.4046C14.6663 21.1316 14.6625 20.8332 14.8333 20.6033C15.0713 20.2713 15.4979 20.16 15.8865 20.1437C17.4752 20.0333 19.0682 20.0112 20.6602 20.0031C20.6751 18.3583 20.6981 16.7115 20.8243 15.0711C20.8382 14.7405 20.9625 14.4003 21.2326 14.1944Z" fill="#C2C6CE"/>
</svg>
