<svg width="25" height="24" viewBox="0 0 25 24" fill="none" xmlns="http://www.w3.org/2000/svg">
<path opacity="0.4" d="M17.528 0H7.472C3.104 0 0.5 2.604 0.5 6.972V17.028C0.5 21.396 3.104 24 7.472 24H17.528C21.896 24 24.5 21.396 24.5 17.028V6.972C24.5 2.604 21.896 0 17.528 0Z" fill="#646464"/>
<path d="M20.072 8.24399C20.072 8.73599 19.676 9.14399 19.172 9.14399H12.872C12.38 9.14399 11.972 8.73599 11.972 8.24399C11.972 7.75199 12.38 7.34399 12.872 7.34399H19.172C19.676 7.34399 20.072 7.75199 20.072 8.24399Z" fill="#646464"/>
<path d="M10.064 7.08L7.364 9.78C7.184 9.96 6.956 10.044 6.728 10.044C6.5 10.044 6.26 9.96 6.092 9.78L5.192 8.88C4.832 8.532 4.832 7.956 5.192 7.608C5.54 7.26 6.104 7.26 6.464 7.608L6.728 7.872L8.792 5.808C9.14 5.46 9.704 5.46 10.064 5.808C10.412 6.156 10.412 6.732 10.064 7.08Z" fill="#646464"/>
<path d="M20.072 16.644C20.072 17.136 19.676 17.544 19.172 17.544H12.872C12.38 17.544 11.972 17.136 11.972 16.644C11.972 16.152 12.38 15.744 12.872 15.744H19.172C19.676 15.744 20.072 16.152 20.072 16.644Z" fill="#646464"/>
<path d="M10.064 15.48L7.364 18.18C7.184 18.36 6.956 18.444 6.728 18.444C6.5 18.444 6.26 18.36 6.092 18.18L5.192 17.28C4.832 16.932 4.832 16.356 5.192 16.008C5.54 15.66 6.104 15.66 6.464 16.008L6.728 16.272L8.792 14.208C9.14 13.86 9.704 13.86 10.064 14.208C10.412 14.556 10.412 15.132 10.064 15.48Z" fill="#646464"/>
</svg>
