<svg width="20" height="20" viewBox="0 0 20 20" fill="none" xmlns="http://www.w3.org/2000/svg">
<path opacity="0.4" d="M9.99994 14.4583C10.7501 14.4583 11.3583 13.8502 11.3583 13.1C11.3583 12.3498 10.7501 11.7417 9.99994 11.7417C9.24975 11.7417 8.6416 12.3498 8.6416 13.1C8.6416 13.8502 9.24975 14.4583 9.99994 14.4583Z" fill="#848484" fill-opacity="0.94"/>
<path d="M13.8748 7.86667H6.12484C2.70817 7.86667 1.6665 8.90834 1.6665 12.325V13.875C1.6665 17.2917 2.70817 18.3333 6.12484 18.3333H13.8748C17.2915 18.3333 18.3332 17.2917 18.3332 13.875V12.325C18.3332 8.90834 17.2915 7.86667 13.8748 7.86667ZM9.99984 15.6167C8.60817 15.6167 7.48317 14.4833 7.48317 13.1C7.48317 11.7167 8.60817 10.5833 9.99984 10.5833C11.3915 10.5833 12.5165 11.7167 12.5165 13.1C12.5165 14.4833 11.3915 15.6167 9.99984 15.6167Z" fill="#848484" fill-opacity="0.94"/>
<path opacity="0.4" d="M5.93327 7.875V6.9C5.93327 4.45833 6.62494 2.83333 9.99994 2.83333C13.3749 2.83333 14.0666 4.45833 14.0666 6.9V7.875C14.4916 7.88333 14.8749 7.9 15.2333 7.95V6.9C15.2333 4.65 14.6916 1.66666 9.99994 1.66666C5.30827 1.66666 4.7666 4.65 4.7666 6.9V7.94166C5.1166 7.9 5.50827 7.875 5.93327 7.875Z" fill="#848484" fill-opacity="0.94"/>
</svg>
