<svg width="34" height="34" viewBox="0 0 34 34" fill="none" xmlns="http://www.w3.org/2000/svg">
<path fill-rule="evenodd" clip-rule="evenodd" d="M33.6663 16.9997C33.6663 26.2047 26.2047 33.6663 16.9997 33.6663C7.79468 33.6663 0.333008 26.2047 0.333008 16.9997C0.333008 7.79468 7.79468 0.333008 16.9997 0.333008C26.2047 0.333008 33.6663 7.79468 33.6663 16.9997ZM11.9497 11.9497C12.1841 11.7156 12.5018 11.5841 12.833 11.5841C13.1643 11.5841 13.482 11.7156 13.7163 11.9497L16.9997 15.233L20.283 11.9497C20.52 11.7289 20.8334 11.6087 21.1572 11.6144C21.481 11.6201 21.79 11.7513 22.019 11.9803C22.2481 12.2093 22.3793 12.5183 22.385 12.8421C22.3907 13.166 22.2705 13.4794 22.0497 13.7163L18.7663 16.9997L22.0497 20.283C22.2705 20.52 22.3907 20.8334 22.385 21.1572C22.3793 21.481 22.2481 21.79 22.019 22.019C21.79 22.2481 21.481 22.3793 21.1572 22.385C20.8334 22.3907 20.52 22.2705 20.283 22.0497L16.9997 18.7663L13.7163 22.0497C13.4794 22.2705 13.166 22.3907 12.8421 22.385C12.5183 22.3793 12.2093 22.2481 11.9803 22.019C11.7513 21.79 11.6201 21.481 11.6144 21.1572C11.6087 20.8334 11.7289 20.52 11.9497 20.283L15.233 16.9997L11.9497 13.7163C11.7156 13.482 11.5841 13.1643 11.5841 12.833C11.5841 12.5018 11.7156 12.1841 11.9497 11.9497Z" fill="#052941"/>
</svg>
