<svg width="16" height="16" viewBox="0 0 16 16" fill="none" xmlns="http://www.w3.org/2000/svg">
<g clip-path="url(#clip0_14_4700)">
<path fill-rule="evenodd" clip-rule="evenodd" d="M11.9768 2.59271C11.9768 2.38662 11.8098 2.21957 11.6037 2.21957H9.89157C9.68548 2.21957 9.51843 2.38662 9.51843 2.59271V4.40728C9.51843 4.61336 9.68548 4.78041 9.89157 4.78041H11.6037C11.8098 4.78041 11.9768 4.61336 11.9768 4.40728V2.59271Z" fill="url(#paint0_linear_14_4700)"/>
<path fill-rule="evenodd" clip-rule="evenodd" d="M12.676 2.09529V1.51858C12.676 1.03774 12.2863 0.64801 11.8054 0.64801H9.59481C9.11397 0.64801 8.72424 1.03774 8.72424 1.51858V2.09529C8.72424 2.57613 9.11397 2.96586 9.59481 2.96586H11.8054C12.2863 2.96586 12.676 2.57613 12.676 2.09529Z" fill="url(#paint1_linear_14_4700)"/>
<path fill-rule="evenodd" clip-rule="evenodd" d="M13.394 5.22639C13.3055 4.54448 12.7248 4.03415 12.0371 4.03415C10.1521 4.03415 5.72392 4.03415 3.83891 4.03415C3.15127 4.03415 2.57049 4.54448 2.48213 5.22639C2.23986 7.09492 1.69025 11.3337 1.69025 11.3337C1.6764 11.4401 1.70912 11.5473 1.77992 11.6279C1.85085 11.7087 1.95294 11.7549 2.06028 11.7549H13.8157C13.9231 11.7549 14.0252 11.7087 14.0961 11.6279C14.1669 11.5473 14.1996 11.4401 14.1858 11.3337L13.394 5.22639Z" fill="url(#paint2_linear_14_4700)"/>
<path fill-rule="evenodd" clip-rule="evenodd" d="M4.22213 6.88143H6.22285C6.42882 6.88143 6.59598 6.71427 6.59598 6.5083C6.59598 6.30245 6.42882 6.13516 6.22285 6.13516H4.22213C4.01616 6.13516 3.849 6.30245 3.849 6.5083C3.849 6.71427 4.01616 6.88143 4.22213 6.88143Z" fill="url(#paint3_linear_14_4700)"/>
<path fill-rule="evenodd" clip-rule="evenodd" d="M4.22213 8.43917H6.22285C6.42882 8.43917 6.59598 8.27201 6.59598 8.06604C6.59598 7.86007 6.42882 7.6929 6.22285 7.6929H4.22213C4.01616 7.6929 3.849 7.86007 3.849 8.06604C3.849 8.27201 4.01616 8.43917 4.22213 8.43917Z" fill="url(#paint4_linear_14_4700)"/>
<path d="M11.1375 6.97444C11.395 6.97444 11.6037 6.76574 11.6037 6.50829C11.6037 6.25085 11.395 6.04214 11.1375 6.04214C10.8801 6.04214 10.6714 6.25085 10.6714 6.50829C10.6714 6.76574 10.8801 6.97444 11.1375 6.97444Z" fill="url(#paint5_linear_14_4700)"/>
<path d="M11.1375 8.53218C11.395 8.53218 11.6037 8.32348 11.6037 8.06603C11.6037 7.80859 11.395 7.59988 11.1375 7.59988C10.8801 7.59988 10.6714 7.80859 10.6714 8.06603C10.6714 8.32348 10.8801 8.53218 11.1375 8.53218Z" fill="url(#paint6_linear_14_4700)"/>
<path d="M11.1375 10.0898C11.395 10.0898 11.6037 9.8811 11.6037 9.62365C11.6037 9.3662 11.395 9.1575 11.1375 9.1575C10.8801 9.1575 10.6714 9.3662 10.6714 9.62365C10.6714 9.8811 10.8801 10.0898 11.1375 10.0898Z" fill="url(#paint7_linear_14_4700)"/>
<path d="M9.5953 6.97444C9.85275 6.97444 10.0614 6.76574 10.0614 6.50829C10.0614 6.25085 9.85275 6.04214 9.5953 6.04214C9.33785 6.04214 9.12915 6.25085 9.12915 6.50829C9.12915 6.76574 9.33785 6.97444 9.5953 6.97444Z" fill="url(#paint8_linear_14_4700)"/>
<path d="M9.5953 8.53218C9.85275 8.53218 10.0614 8.32348 10.0614 8.06603C10.0614 7.80859 9.85275 7.59988 9.5953 7.59988C9.33785 7.59988 9.12915 7.80859 9.12915 8.06603C9.12915 8.32348 9.33785 8.53218 9.5953 8.53218Z" fill="url(#paint9_linear_14_4700)"/>
<path d="M9.5953 10.0898C9.85275 10.0898 10.0614 9.8811 10.0614 9.62365C10.0614 9.3662 9.85275 9.1575 9.5953 9.1575C9.33785 9.1575 9.12915 9.3662 9.12915 9.62365C9.12915 9.8811 9.33785 10.0898 9.5953 10.0898Z" fill="url(#paint10_linear_14_4700)"/>
<path d="M8.05306 6.97444C8.31051 6.97444 8.51921 6.76574 8.51921 6.50829C8.51921 6.25085 8.31051 6.04214 8.05306 6.04214C7.79562 6.04214 7.58691 6.25085 7.58691 6.50829C7.58691 6.76574 7.79562 6.97444 8.05306 6.97444Z" fill="url(#paint11_linear_14_4700)"/>
<path d="M8.05306 8.53218C8.31051 8.53218 8.51921 8.32348 8.51921 8.06603C8.51921 7.80859 8.31051 7.59988 8.05306 7.59988C7.79562 7.59988 7.58691 7.80859 7.58691 8.06603C7.58691 8.32348 7.79562 8.53218 8.05306 8.53218Z" fill="url(#paint12_linear_14_4700)"/>
<path d="M8.05306 10.0898C8.31051 10.0898 8.51921 9.8811 8.51921 9.62365C8.51921 9.3662 8.31051 9.1575 8.05306 9.1575C7.79562 9.1575 7.58691 9.3662 7.58691 9.62365C7.58691 9.8811 7.79562 10.0898 8.05306 10.0898Z" fill="url(#paint13_linear_14_4700)"/>
<path fill-rule="evenodd" clip-rule="evenodd" d="M15.1351 12.3767C15.1351 11.6211 14.5226 11.0086 13.7669 11.0086C11.246 11.0086 4.62992 11.0086 2.10908 11.0086C1.3535 11.0086 0.740845 11.6211 0.740845 12.3767C0.740845 12.7961 0.740845 13.283 0.740845 13.7023C0.740845 14.4579 1.3535 15.0705 2.10908 15.0705C4.62992 15.0705 11.246 15.0705 13.7669 15.0705C14.5226 15.0705 15.1351 14.4579 15.1351 13.7023C15.1351 13.283 15.1351 12.7961 15.1351 12.3767Z" fill="url(#paint14_linear_14_4700)"/>
<path fill-rule="evenodd" clip-rule="evenodd" d="M15.1351 12.8337H0.740845V13.7023C0.740845 14.4579 1.3535 15.0705 2.10908 15.0705C4.62992 15.0705 11.246 15.0705 13.7669 15.0705C14.5226 15.0705 15.1351 14.4579 15.1351 13.7023V12.8337Z" fill="url(#paint15_linear_14_4700)"/>
</g>
<defs>
<linearGradient id="paint0_linear_14_4700" x1="10.7476" y1="3.3582" x2="10.7476" y2="5.96686" gradientUnits="userSpaceOnUse">
<stop stop-color="#8D9499"/>
<stop offset="1" stop-color="#406178"/>
</linearGradient>
<linearGradient id="paint1_linear_14_4700" x1="10.7476" y1="1.99006" x2="10.7476" y2="5.01766" gradientUnits="userSpaceOnUse">
<stop stop-color="#DBE6FD"/>
<stop offset="1" stop-color="#4883FF"/>
</linearGradient>
<linearGradient id="paint2_linear_14_4700" x1="6.7164" y1="9.52275" x2="6.7164" y2="14.0948" gradientUnits="userSpaceOnUse">
<stop stop-color="#F8C460"/>
<stop offset="1" stop-color="#E09400"/>
</linearGradient>
<linearGradient id="paint3_linear_14_4700" x1="5.47268" y1="6.23953" x2="5.47268" y2="11.1054" gradientUnits="userSpaceOnUse">
<stop stop-color="#DBE6FD"/>
<stop offset="1" stop-color="#4883FF"/>
</linearGradient>
<linearGradient id="paint4_linear_14_4700" x1="5.52057" y1="7.96021" x2="5.52057" y2="11.8019" gradientUnits="userSpaceOnUse">
<stop stop-color="#DBE6FD"/>
<stop offset="1" stop-color="#4883FF"/>
</linearGradient>
<linearGradient id="paint5_linear_14_4700" x1="9.59527" y1="6.50835" x2="9.59527" y2="9.45274" gradientUnits="userSpaceOnUse">
<stop stop-color="#DBE6FD"/>
<stop offset="1" stop-color="#4883FF"/>
</linearGradient>
<linearGradient id="paint6_linear_14_4700" x1="9.33549" y1="7.98644" x2="9.33549" y2="10.9453" gradientUnits="userSpaceOnUse">
<stop stop-color="#DBE6FD"/>
<stop offset="1" stop-color="#4883FF"/>
</linearGradient>
<linearGradient id="paint7_linear_14_4700" x1="9.67183" y1="9.58009" x2="9.67183" y2="11.9403" gradientUnits="userSpaceOnUse">
<stop stop-color="#DBE6FD"/>
<stop offset="1" stop-color="#4883FF"/>
</linearGradient>
<linearGradient id="paint8_linear_14_4700" x1="9.59524" y1="6.50835" x2="9.59524" y2="9.45274" gradientUnits="userSpaceOnUse">
<stop stop-color="#DBE6FD"/>
<stop offset="1" stop-color="#4883FF"/>
</linearGradient>
<linearGradient id="paint9_linear_14_4700" x1="9.33547" y1="7.98644" x2="9.33547" y2="10.9453" gradientUnits="userSpaceOnUse">
<stop stop-color="#DBE6FD"/>
<stop offset="1" stop-color="#4883FF"/>
</linearGradient>
<linearGradient id="paint10_linear_14_4700" x1="9.6718" y1="9.58009" x2="9.6718" y2="11.9403" gradientUnits="userSpaceOnUse">
<stop stop-color="#DBE6FD"/>
<stop offset="1" stop-color="#4883FF"/>
</linearGradient>
<linearGradient id="paint11_linear_14_4700" x1="9.59533" y1="6.50835" x2="9.59533" y2="9.45274" gradientUnits="userSpaceOnUse">
<stop stop-color="#DBE6FD"/>
<stop offset="1" stop-color="#4883FF"/>
</linearGradient>
<linearGradient id="paint12_linear_14_4700" x1="9.33556" y1="7.98644" x2="9.33556" y2="10.9453" gradientUnits="userSpaceOnUse">
<stop stop-color="#DBE6FD"/>
<stop offset="1" stop-color="#4883FF"/>
</linearGradient>
<linearGradient id="paint13_linear_14_4700" x1="9.67189" y1="9.58009" x2="9.67189" y2="11.9403" gradientUnits="userSpaceOnUse">
<stop stop-color="#DBE6FD"/>
<stop offset="1" stop-color="#4883FF"/>
</linearGradient>
<linearGradient id="paint14_linear_14_4700" x1="7.83418" y1="12.2942" x2="7.83418" y2="14.5522" gradientUnits="userSpaceOnUse">
<stop stop-color="#8E969B"/>
<stop offset="1" stop-color="#40647A"/>
</linearGradient>
<linearGradient id="paint15_linear_14_4700" x1="7.8004" y1="14.1791" x2="7.8004" y2="18.6567" gradientUnits="userSpaceOnUse">
<stop stop-color="#778084"/>
<stop offset="1" stop-color="#345462"/>
</linearGradient>
<clipPath id="clip0_14_4700">
<rect width="16" height="16" fill="white"/>
</clipPath>
</defs>
</svg>
