<svg width="14" height="13" viewBox="0 0 14 13" fill="none" xmlns="http://www.w3.org/2000/svg">
<path d="M11.5553 3.00442C10.7234 2.92458 9.89149 2.86471 9.05443 2.8198V2.81481L8.94076 2.16616C8.86325 1.70712 8.74958 1.01855 7.5405 1.01855H6.18674C4.98283 1.01855 4.86915 1.67718 4.78648 2.16117L4.67797 2.79984C4.19744 2.82978 3.71691 2.85972 3.23638 2.90463L2.18231 3.00442C1.96529 3.02438 1.81028 3.20899 1.83095 3.41357C1.85162 3.61814 2.03763 3.76783 2.25464 3.74787L3.30871 3.64808C6.01623 3.38862 8.74441 3.48841 11.4829 3.75286C11.4984 3.75286 11.5088 3.75286 11.5243 3.75286C11.7206 3.75286 11.8911 3.60816 11.9118 3.41357C11.9273 3.20899 11.7723 3.02438 11.5553 3.00442Z" fill="#292D32"/>
<path opacity="0.3991" d="M10.6043 4.45631C10.4803 4.33157 10.3098 4.26172 10.1341 4.26172H3.60297C3.42729 4.26172 3.25162 4.33157 3.13277 4.45631C3.01393 4.58105 2.94676 4.7507 2.9571 4.92534L3.27745 10.0447C3.33429 10.8031 3.40663 11.7511 5.20991 11.7511H8.52714C10.3304 11.7511 10.4028 10.8081 10.4596 10.0447L10.78 4.93033C10.7903 4.7507 10.7231 4.58105 10.6043 4.45631Z" fill="#292D32"/>
<path fill-rule="evenodd" clip-rule="evenodd" d="M5.61816 8.87715C5.61816 8.67047 5.79167 8.50293 6.00569 8.50293H7.72631C7.94033 8.50293 8.11383 8.67047 8.11383 8.87715C8.11383 9.08383 7.94033 9.25137 7.72631 9.25137H6.00569C5.79167 9.25137 5.61816 9.08383 5.61816 8.87715Z" fill="#292D32"/>
<path fill-rule="evenodd" clip-rule="evenodd" d="M5.18945 6.88106C5.18945 6.67438 5.36295 6.50684 5.57698 6.50684H8.16049C8.37451 6.50684 8.54801 6.67438 8.54801 6.88106C8.54801 7.08773 8.37451 7.25528 8.16049 7.25528H5.57698C5.36295 7.25528 5.18945 7.08773 5.18945 6.88106Z" fill="#292D32"/>
</svg>
