<svg width="15" height="13" viewBox="0 0 15 13" fill="none" xmlns="http://www.w3.org/2000/svg">
<path d="M5.8125 6.5C5.8125 6.05245 5.99029 5.62323 6.30676 5.30676C6.62323 4.99029 7.05245 4.8125 7.5 4.8125C7.94755 4.8125 8.37677 4.99029 8.69324 5.30676C9.00971 5.62323 9.1875 6.05245 9.1875 6.5C9.1875 6.94755 9.00971 7.37677 8.69324 7.69324C8.37677 8.00971 7.94755 8.1875 7.5 8.1875C7.05245 8.1875 6.62323 8.00971 6.30676 7.69324C5.99029 7.37677 5.8125 6.94755 5.8125 6.5Z" fill="#254E7F"/>
<path fill-rule="evenodd" clip-rule="evenodd" d="M0 6.5C0 7.73 0.31875 8.14325 0.95625 8.972C2.229 10.625 4.3635 12.5 7.5 12.5C10.6365 12.5 12.771 10.625 14.0438 8.972C14.6813 8.144 15 7.72925 15 6.5C15 5.27 14.6813 4.85675 14.0438 4.028C12.771 2.375 10.6365 0.5 7.5 0.5C4.3635 0.5 2.229 2.375 0.95625 4.028C0.31875 4.8575 0 5.27075 0 6.5ZM7.5 3.6875C6.75408 3.6875 6.03871 3.98382 5.51126 4.51126C4.98382 5.03871 4.6875 5.75408 4.6875 6.5C4.6875 7.24592 4.98382 7.96129 5.51126 8.48874C6.03871 9.01618 6.75408 9.3125 7.5 9.3125C8.24592 9.3125 8.96129 9.01618 9.48874 8.48874C10.0162 7.96129 10.3125 7.24592 10.3125 6.5C10.3125 5.75408 10.0162 5.03871 9.48874 4.51126C8.96129 3.98382 8.24592 3.6875 7.5 3.6875Z" fill="#254E7F"/>
</svg>
