<svg width="20" height="20" viewBox="0 0 20 20" fill="none" xmlns="http://www.w3.org/2000/svg">
<path opacity="0.4" d="M9.99984 18.3417C14.6022 18.3417 18.3332 14.6107 18.3332 10.0083C18.3332 5.40596 14.6022 1.675 9.99984 1.675C5.39746 1.675 1.6665 5.40596 1.6665 10.0083C1.6665 14.6107 5.39746 18.3417 9.99984 18.3417Z" fill="#848484" fill-opacity="0.94"/>
<path d="M10 5.78333C8.275 5.78333 6.875 7.18333 6.875 8.90833C6.875 10.6 8.2 11.975 9.95833 12.025C9.98333 12.025 10.0167 12.025 10.0333 12.025C10.05 12.025 10.075 12.025 10.0917 12.025C10.1 12.025 10.1083 12.025 10.1083 12.025C11.7917 11.9667 13.1167 10.6 13.125 8.90833C13.125 7.18333 11.725 5.78333 10 5.78333Z" fill="#848484" fill-opacity="0.94"/>
<path d="M15.6501 16.1333C14.1668 17.5 12.1834 18.3417 10.0001 18.3417C7.81676 18.3417 5.83343 17.5 4.3501 16.1333C4.5501 15.375 5.09176 14.6833 5.88343 14.15C8.15843 12.6333 11.8584 12.6333 14.1168 14.15C14.9168 14.6833 15.4501 15.375 15.6501 16.1333Z" fill="#848484" fill-opacity="0.94"/>
</svg>
