<svg width="18" height="19" viewBox="0 0 18 19" fill="none" xmlns="http://www.w3.org/2000/svg">
<path opacity="0.4" d="M9 17C13.1421 17 16.5 13.6421 16.5 9.5C16.5 5.35786 13.1421 2 9 2C4.85786 2 1.5 5.35786 1.5 9.5C1.5 13.6421 4.85786 17 9 17Z" fill="#B3261E"/>
<path d="M9.79453 9.49953L11.5195 7.77453C11.737 7.55703 11.737 7.19703 11.5195 6.97953C11.302 6.76203 10.942 6.76203 10.7245 6.97953L8.99953 8.70453L7.27453 6.97953C7.05703 6.76203 6.69703 6.76203 6.47953 6.97953C6.26203 7.19703 6.26203 7.55703 6.47953 7.77453L8.20453 9.49953L6.47953 11.2245C6.26203 11.442 6.26203 11.802 6.47953 12.0195C6.59203 12.132 6.73453 12.1845 6.87703 12.1845C7.01953 12.1845 7.16203 12.132 7.27453 12.0195L8.99953 10.2945L10.7245 12.0195C10.837 12.132 10.9795 12.1845 11.122 12.1845C11.2645 12.1845 11.407 12.132 11.5195 12.0195C11.737 11.802 11.737 11.442 11.5195 11.2245L9.79453 9.49953Z" fill="#B3261E"/>
</svg>
