<svg width="24" height="24" viewBox="0 0 24 24" fill="none" xmlns="http://www.w3.org/2000/svg">
<rect width="24" height="24" rx="12" fill="#FF5630" fill-opacity="0.16"/>
<path d="M18.0002 12C18.0002 11.6318 17.7018 11.3333 17.3336 11.3333C16.9654 11.3333 16.6669 11.6318 16.6669 12V13.5333L13.8402 10.2C13.6296 9.95374 13.2723 9.89467 12.9936 10.06L10.1469 11.8L7.18023 8.23999C7.0278 8.0566 6.7891 7.96845 6.55406 8.00877C6.31902 8.04908 6.12334 8.21172 6.04073 8.43543C5.95812 8.65914 6.00113 8.90993 6.15357 9.09333L9.4869 13.0933C9.69657 13.3454 10.0584 13.4076 10.3402 13.24L13.1936 11.5267L15.8602 14.6667H14.0002C13.632 14.6667 13.3336 14.9651 13.3336 15.3333C13.3336 15.7015 13.632 16 14.0002 16H17.3336C17.4156 15.998 17.4967 15.9822 17.5736 15.9533L17.6669 15.9C17.7017 15.8825 17.7351 15.8624 17.7669 15.84C17.8034 15.807 17.8349 15.7688 17.8602 15.7267C17.8826 15.6971 17.9026 15.6659 17.9202 15.6333C17.9365 15.5973 17.9478 15.5591 17.9536 15.52C17.9806 15.4612 17.9964 15.3979 18.0002 15.3333V12Z" fill="#FF5630"/>
</svg>
