<svg width="17" height="17" viewBox="0 0 17 17" fill="none" xmlns="http://www.w3.org/2000/svg">
<path d="M6.99992 8.50001C6.99992 8.10218 7.15795 7.72065 7.43926 7.43935C7.72056 7.15804 8.10209 7.00001 8.49992 7.00001C8.89774 7.00001 9.27927 7.15804 9.56058 7.43935C9.84188 7.72065 9.99992 8.10218 9.99992 8.50001C9.99992 8.89783 9.84188 9.27936 9.56058 9.56067C9.27927 9.84197 8.89774 10 8.49992 10C8.10209 10 7.72056 9.84197 7.43926 9.56067C7.15795 9.27936 6.99992 8.89783 6.99992 8.50001Z" fill="#052941"/>
<path fill-rule="evenodd" clip-rule="evenodd" d="M1.83325 8.50001C1.83325 9.59334 2.11659 9.96067 2.68325 10.6973C3.81459 12.1667 5.71192 13.8333 8.49992 13.8333C11.2879 13.8333 13.1853 12.1667 14.3166 10.6973C14.8833 9.96134 15.1666 9.59267 15.1666 8.50001C15.1666 7.40667 14.8833 7.03934 14.3166 6.30267C13.1853 4.83334 11.2879 3.16667 8.49992 3.16667C5.71192 3.16667 3.81459 4.83334 2.68325 6.30267C2.11659 7.04001 1.83325 7.40734 1.83325 8.50001ZM8.49992 6.00001C7.83688 6.00001 7.20099 6.2634 6.73215 6.73224C6.26331 7.20108 5.99992 7.83696 5.99992 8.50001C5.99992 9.16305 6.26331 9.79893 6.73215 10.2678C7.20099 10.7366 7.83688 11 8.49992 11C9.16296 11 9.79884 10.7366 10.2677 10.2678C10.7365 9.79893 10.9999 9.16305 10.9999 8.50001C10.9999 7.83696 10.7365 7.20108 10.2677 6.73224C9.79884 6.2634 9.16296 6.00001 8.49992 6.00001Z" fill="#052941"/>
</svg>
