<svg width="36" height="36" viewBox="0 0 36 36" fill="none" xmlns="http://www.w3.org/2000/svg">
<path d="M30.24 6.29121H3.95997C2.96586 6.29121 2.15997 7.0971 2.15997 8.09121V20.3312C2.15997 21.3253 2.96586 22.1312 3.95997 22.1312H30.24C31.2341 22.1312 32.04 21.3253 32.04 20.3312V8.09121C32.04 7.0971 31.2341 6.29121 30.24 6.29121Z" fill="#F9B552"/>
<path d="M32.04 9.17121H3.96C1.77295 9.17121 0 10.9442 0 13.1312V29.3312C0 31.5183 1.77295 33.2912 3.96 33.2912H32.04C34.2271 33.2912 36 31.5183 36 29.3312V13.1312C36 10.9442 34.2271 9.17121 32.04 9.17121Z" fill="#FFCF5C"/>
<path d="M14.04 2.69121H3.96C1.77295 2.69121 0 4.46416 0 6.65121V12.4112C0 14.5983 1.77295 16.3712 3.96 16.3712H14.04C16.227 16.3712 18 14.5983 18 12.4112V6.65121C18 4.46416 16.227 2.69121 14.04 2.69121Z" fill="#FFCF5C"/>
</svg>
