<svg width="20" height="20" viewBox="0 0 20 20" fill="none" xmlns="http://www.w3.org/2000/svg">
<path d="M10 1.66666C11.9891 1.66666 13.8968 2.45683 15.3033 3.86336C16.7098 5.26988 17.5 7.17753 17.5 9.16666C17.5 11.7283 16.1033 13.825 14.6317 15.3292C13.8963 16.0724 13.094 16.7464 12.235 17.3425L11.88 17.5842L11.7133 17.695L11.3992 17.895L11.1192 18.0658L10.7725 18.2675C10.5371 18.4015 10.2709 18.4719 10 18.4719C9.72913 18.4719 9.46291 18.4015 9.2275 18.2675L8.88083 18.0658L8.4475 17.7992L8.2875 17.695L7.94583 17.4675C7.01915 16.8403 6.15589 16.1241 5.36833 15.3292C3.89667 13.8233 2.5 11.7283 2.5 9.16666C2.5 7.17753 3.29018 5.26988 4.6967 3.86336C6.10322 2.45683 8.01088 1.66666 10 1.66666ZM10 6.66666C9.6717 6.66666 9.34661 6.73132 9.04329 6.85696C8.73998 6.98259 8.46438 7.16674 8.23223 7.39889C8.00009 7.63104 7.81594 7.90663 7.6903 8.20995C7.56466 8.51326 7.5 8.83835 7.5 9.16666C7.5 9.49496 7.56466 9.82005 7.6903 10.1234C7.81594 10.4267 8.00009 10.7023 8.23223 10.9344C8.46438 11.1666 8.73998 11.3507 9.04329 11.4764C9.34661 11.602 9.6717 11.6667 10 11.6667C10.663 11.6667 11.2989 11.4033 11.7678 10.9344C12.2366 10.4656 12.5 9.8297 12.5 9.16666C12.5 8.50362 12.2366 7.86773 11.7678 7.39889C11.2989 6.93005 10.663 6.66666 10 6.66666Z" fill="#FF5630"/>
</svg>
