<svg width="36" height="37" viewBox="0 0 36 37" fill="none" xmlns="http://www.w3.org/2000/svg">
<path d="M20.772 0.5C21.3022 0.5 21.8107 0.710507 22.1857 1.08526L32.7137 11.6053C33.0891 11.9805 33.3 12.4894 33.3 13.0201V32.3C33.3 34.6196 31.382 36.5 29.016 36.5H6.98401C4.61802 36.5 2.70001 34.6196 2.70001 32.3L2.70001 4.7C2.70001 2.3804 4.61802 0.5 6.98401 0.5L20.772 0.5Z" fill="#FF5630"/>
<g filter="url(#filter0_d_512_47707)">
<path d="M31.5549 11.3391C31.8679 11.6547 31.6443 12.1912 31.1999 12.1912H26.1C23.7804 12.1912 21.6879 10.151 21.6879 7.88929V2.60534C21.6879 2.1589 22.2285 1.93626 22.5429 2.25323L31.5549 11.3391Z" fill="white" fill-opacity="0.24" shape-rendering="crispEdges"/>
</g>
<path opacity="0.4" d="M18.8284 20.2023V22.6703L23.4003 25.3973V17.4825L18.8284 20.2023Z" fill="white"/>
<path d="M19.3895 16.6912H9.84239C9.3816 16.6912 9 17.0654 9 17.5331V25.3544C9 25.8149 9.3744 26.1962 9.84239 26.1962H19.3967C19.8575 26.1962 20.2391 25.8221 20.2391 25.3544V17.5259C20.2319 17.0654 19.8575 16.6912 19.3895 16.6912ZM12.6432 24.3902V18.4901L17.4527 21.4401L12.6432 24.3902Z" fill="white"/>
<defs>
<filter id="filter0_d_512_47707" x="19.6879" y="2.10434" width="14.013" height="14.0869" filterUnits="userSpaceOnUse" color-interpolation-filters="sRGB">
<feFlood flood-opacity="0" result="BackgroundImageFix"/>
<feColorMatrix in="SourceAlpha" type="matrix" values="0 0 0 0 0 0 0 0 0 0 0 0 0 0 0 0 0 0 127 0" result="hardAlpha"/>
<feOffset dy="2"/>
<feGaussianBlur stdDeviation="1"/>
<feComposite in2="hardAlpha" operator="out"/>
<feColorMatrix type="matrix" values="0 0 0 0 0 0 0 0 0 0 0 0 0 0 0 0 0 0 0.04 0"/>
<feBlend mode="normal" in2="BackgroundImageFix" result="effect1_dropShadow_512_47707"/>
<feBlend mode="normal" in="SourceGraphic" in2="effect1_dropShadow_512_47707" result="shape"/>
</filter>
</defs>
</svg>
