<svg width="36" height="37" viewBox="0 0 36 37" fill="none" xmlns="http://www.w3.org/2000/svg">
<path d="M20.772 0.491211C21.3022 0.491211 21.8107 0.701718 22.1857 1.07647L32.7137 11.5965C33.0891 11.9717 33.3 12.4806 33.3 13.0113V32.2912C33.3 34.6108 31.382 36.4912 29.016 36.4912H6.98401C4.61802 36.4912 2.70001 34.6108 2.70001 32.2912L2.70001 4.69121C2.70001 2.37162 4.61802 0.491211 6.98401 0.491211L20.772 0.491211Z" fill="#C4CDD5"/>
<g filter="url(#filter0_d_512_47719)">
<path d="M31.5549 11.3303C31.8679 11.6459 31.6443 12.1824 31.1999 12.1824H26.1C23.7804 12.1824 21.6879 10.1422 21.6879 7.8805V2.59655C21.6879 2.15011 22.2285 1.92747 22.5429 2.24444L31.5549 11.3303Z" fill="white" fill-opacity="0.24" shape-rendering="crispEdges"/>
</g>
<defs>
<filter id="filter0_d_512_47719" x="19.6879" y="2.09555" width="14.013" height="14.0869" filterUnits="userSpaceOnUse" color-interpolation-filters="sRGB">
<feFlood flood-opacity="0" result="BackgroundImageFix"/>
<feColorMatrix in="SourceAlpha" type="matrix" values="0 0 0 0 0 0 0 0 0 0 0 0 0 0 0 0 0 0 127 0" result="hardAlpha"/>
<feOffset dy="2"/>
<feGaussianBlur stdDeviation="1"/>
<feComposite in2="hardAlpha" operator="out"/>
<feColorMatrix type="matrix" values="0 0 0 0 0 0 0 0 0 0 0 0 0 0 0 0 0 0 0.04 0"/>
<feBlend mode="normal" in2="BackgroundImageFix" result="effect1_dropShadow_512_47719"/>
<feBlend mode="normal" in="SourceGraphic" in2="effect1_dropShadow_512_47719" result="shape"/>
</filter>
</defs>
</svg>
