<svg width="21" height="21" viewBox="0 0 21 21" fill="none" xmlns="http://www.w3.org/2000/svg">
<path d="M16.5657 9.26473H11.5657V4.26473C11.5657 3.80449 11.1926 3.4314 10.7323 3.4314C10.2721 3.4314 9.89901 3.80449 9.89901 4.26473V9.26473H4.89901C4.43877 9.26473 4.06567 9.63783 4.06567 10.0981C4.06567 10.5583 4.43877 10.9314 4.89901 10.9314H9.89901V15.9314C9.89901 16.3916 10.2721 16.7647 10.7323 16.7647C11.1926 16.7647 11.5657 16.3916 11.5657 15.9314V10.9314H16.5657C17.0259 10.9314 17.399 10.5583 17.399 10.0981C17.399 9.63783 17.0259 9.26473 16.5657 9.26473Z" fill="#00AB55"/>
</svg>
