<svg width="18" height="18" viewBox="0 0 18 18" fill="none" xmlns="http://www.w3.org/2000/svg">
<path fill-rule="evenodd" clip-rule="evenodd" d="M12.3337 3.99935H5.66699C3.31033 3.99935 2.13116 3.99935 1.39949 4.73185C0.666992 5.46352 0.666992 6.64268 0.666992 8.99935C0.666992 11.356 0.666992 12.5352 1.39949 13.2668C1.81116 13.6793 2.36449 13.8593 3.19033 13.9385C3.16699 13.336 3.16699 11.7927 3.16699 11.0827C3.05649 11.0827 2.9505 11.0388 2.87236 10.9606C2.79422 10.8825 2.75033 10.7765 2.75033 10.666C2.75033 10.5555 2.79422 10.4495 2.87236 10.3714C2.9505 10.2932 3.05649 10.2493 3.16699 10.2493H14.8337C14.9442 10.2493 15.0501 10.2932 15.1283 10.3714C15.2064 10.4495 15.2503 10.5555 15.2503 10.666C15.2503 10.7765 15.2064 10.8825 15.1283 10.9606C15.0501 11.0388 14.9442 11.0827 14.8337 11.0827C14.8337 11.7927 14.8337 13.336 14.8103 13.9385C15.6353 13.8593 16.1895 13.6793 16.602 13.2668C17.3337 12.5352 17.3337 11.356 17.3337 8.99935C17.3337 6.64268 17.3337 5.46352 16.6012 4.73185C15.8695 3.99935 14.6903 3.99935 12.3337 3.99935ZM6.50033 7.95768C6.66609 7.95768 6.82506 7.89183 6.94227 7.77462C7.05948 7.65741 7.12533 7.49844 7.12533 7.33268C7.12533 7.16692 7.05948 7.00795 6.94227 6.89074C6.82506 6.77353 6.66609 6.70768 6.50033 6.70768H4.00033C3.83457 6.70768 3.67559 6.77353 3.55838 6.89074C3.44117 7.00795 3.37533 7.16692 3.37533 7.33268C3.37533 7.49844 3.44117 7.65741 3.55838 7.77462C3.67559 7.89183 3.83457 7.95768 4.00033 7.95768H6.50033ZM13.167 8.16602C13.388 8.16602 13.6 8.07822 13.7562 7.92194C13.9125 7.76566 14.0003 7.5537 14.0003 7.33268C14.0003 7.11167 13.9125 6.89971 13.7562 6.74343C13.6 6.58715 13.388 6.49935 13.167 6.49935C12.946 6.49935 12.734 6.58715 12.5777 6.74343C12.4215 6.89971 12.3337 7.11167 12.3337 7.33268C12.3337 7.5537 12.4215 7.76566 12.5777 7.92194C12.734 8.07822 12.946 8.16602 13.167 8.16602Z" fill="#052941"/>
<path d="M13.2678 1.39852C12.5353 0.666016 11.357 0.666016 9.00033 0.666016C6.64283 0.666016 5.46449 0.666016 4.73199 1.39852C4.32199 1.80852 4.14199 2.35935 4.06199 3.17852C4.52866 3.16602 5.04366 3.16602 5.60866 3.16602H12.3937C12.9578 3.16602 13.4728 3.16602 13.9387 3.17852C13.8595 2.35935 13.6778 1.80852 13.2678 1.39852Z" fill="#052941"/>
<path fill-rule="evenodd" clip-rule="evenodd" d="M14.0003 11.0827C14.0003 13.4393 14.0003 15.8685 13.2678 16.6002C12.5362 17.3327 11.357 17.3327 9.00033 17.3327C6.64366 17.3327 5.46449 17.3327 4.73283 16.6002C4.00033 15.8685 4.00033 13.4393 4.00033 11.0827H14.0003ZM12.1253 12.9577C12.1253 13.1234 12.0595 13.2824 11.9423 13.3996C11.8251 13.5168 11.6661 13.5827 11.5003 13.5827H6.50033C6.33457 13.5827 6.17559 13.5168 6.05838 13.3996C5.94117 13.2824 5.87533 13.1234 5.87533 12.9577C5.87533 12.7919 5.94117 12.6329 6.05838 12.5157C6.17559 12.3985 6.33457 12.3327 6.50033 12.3327H11.5003C11.6661 12.3327 11.8251 12.3985 11.9423 12.5157C12.0595 12.6329 12.1253 12.7919 12.1253 12.9577ZM10.4587 15.4577C10.4587 15.6234 10.3928 15.7824 10.2756 15.8996C10.1584 16.0168 9.99942 16.0827 9.83366 16.0827H6.50033C6.33457 16.0827 6.17559 16.0168 6.05838 15.8996C5.94117 15.7824 5.87533 15.6234 5.87533 15.4577C5.87533 15.2919 5.94117 15.1329 6.05838 15.0157C6.17559 14.8985 6.33457 14.8327 6.50033 14.8327H9.83366C9.99942 14.8327 10.1584 14.8985 10.2756 15.0157C10.3928 15.1329 10.4587 15.2919 10.4587 15.4577Z" fill="#052941"/>
</svg>
