<svg width="20" height="20" viewBox="0 0 20 20" fill="none" xmlns="http://www.w3.org/2000/svg">
<path d="M10 1.66663C7.81669 1.66663 6.04169 3.44163 6.04169 5.62496C6.04169 7.76663 7.71669 9.49996 9.90002 9.57496C9.96669 9.56663 10.0334 9.56663 10.0834 9.57496C10.1 9.57496 10.1084 9.57496 10.125 9.57496C10.1334 9.57496 10.1334 9.57496 10.1417 9.57496C12.275 9.49996 13.95 7.76663 13.9584 5.62496C13.9584 3.44163 12.1834 1.66663 10 1.66663Z" fill="#848484" fill-opacity="0.94"/>
<path opacity="0.4" d="M14.2334 11.8C11.9084 10.25 8.1167 10.25 5.77503 11.8C4.7167 12.5 4.13336 13.4583 4.13336 14.4833C4.13336 15.5083 4.7167 16.4583 5.7667 17.1583C6.93336 17.9416 8.4667 18.3333 10 18.3333C11.5334 18.3333 13.0667 17.9416 14.2334 17.1583C15.2834 16.45 15.8667 15.5 15.8667 14.4666C15.8584 13.45 15.2834 12.4916 14.2334 11.8Z" fill="#848484" fill-opacity="0.94"/>
<path d="M9.47499 16.05C9.34166 16.05 9.20833 15.9916 9.10833 15.9L8.05833 14.85C7.85833 14.65 7.85833 14.3166 8.05833 14.1166C8.25833 13.9166 8.59166 13.9166 8.79166 14.1166L9.47499 14.8L11.2083 13.0666C11.4083 12.8666 11.7417 12.8666 11.9417 13.0666C12.1417 13.2666 12.1417 13.6 11.9417 13.8L9.84166 15.9C9.74166 16 9.60832 16.05 9.47499 16.05Z" fill="#D3D3D3"/>
</svg>
