<svg width="20" height="20" viewBox="0 0 20 20" fill="none" xmlns="http://www.w3.org/2000/svg">
<path opacity="0.4" d="M18.325 5.01668C18.3416 5.21668 18.325 5.42501 18.275 5.63334L15.4667 16.9083C15.2667 17.75 14.5167 18.3333 13.65 18.3333H2.69998C1.44164 18.3333 0.549989 17.1 0.916656 15.8917L4.42498 4.61665C4.66665 3.83332 5.39166 3.30002 6.20833 3.30002H16.4583C17.2583 3.30002 17.9083 3.77501 18.1833 4.44168C18.2667 4.61668 18.3083 4.81668 18.325 5.01668Z" fill="#848484"/>
<path d="M19.1583 16.35C19.2416 17.425 18.3917 18.3333 17.3167 18.3333H13.65C14.5167 18.3333 15.2667 17.75 15.4667 16.9083L18.275 5.63334C18.325 5.42501 18.3416 5.21668 18.325 5.01668L18.3333 5L19.1583 16.35Z" fill="#848484"/>
<path d="M8.06663 5.94167C8.01663 5.94167 7.96664 5.93332 7.91664 5.92498C7.58331 5.84165 7.37498 5.50834 7.45832 5.16667L8.32497 1.56667C8.4083 1.23333 8.74164 1.03334 9.0833 1.10834C9.41664 1.19168 9.62498 1.52499 9.54165 1.86665L8.67498 5.46666C8.60831 5.74999 8.34997 5.94167 8.06663 5.94167Z" fill="#848484"/>
<path d="M13.65 5.94999C13.6083 5.94999 13.5583 5.94997 13.5167 5.9333C13.1833 5.8583 12.9667 5.52496 13.0334 5.19163L13.8167 1.57499C13.8917 1.23332 14.225 1.02497 14.5583 1.09164C14.8917 1.16664 15.1083 1.49999 15.0417 1.83332L14.2583 5.44996C14.2 5.74996 13.9417 5.94999 13.65 5.94999Z" fill="#848484"/>
<path d="M13.0834 10.625H6.41669C6.07502 10.625 5.79169 10.3417 5.79169 10C5.79169 9.65833 6.07502 9.375 6.41669 9.375H13.0834C13.425 9.375 13.7084 9.65833 13.7084 10C13.7084 10.3417 13.425 10.625 13.0834 10.625Z" fill="#848484"/>
<path d="M12.25 13.9583H5.58334C5.24168 13.9583 4.95834 13.675 4.95834 13.3333C4.95834 12.9917 5.24168 12.7083 5.58334 12.7083H12.25C12.5917 12.7083 12.875 12.9917 12.875 13.3333C12.875 13.675 12.5917 13.9583 12.25 13.9583Z" fill="#848484"/>
</svg>
