<svg width="20" height="20" viewBox="0 0 20 20" fill="none" xmlns="http://www.w3.org/2000/svg">
<path opacity="0.4" d="M14.6083 6.47502C14.55 6.46669 14.4916 6.46669 14.4333 6.47502C13.1416 6.43336 12.1166 5.37502 12.1166 4.07502C12.1166 2.75002 13.1916 1.66669 14.525 1.66669C15.85 1.66669 16.9333 2.74169 16.9333 4.07502C16.925 5.37502 15.9 6.43336 14.6083 6.47502Z" fill="#848484" fill-opacity="0.94"/>
<path opacity="0.4" d="M17.325 12.25C16.3916 12.875 15.0833 13.1084 13.875 12.95C14.1916 12.2667 14.3583 11.5084 14.3666 10.7084C14.3666 9.87503 14.1833 9.08337 13.8333 8.3917C15.0666 8.22503 16.375 8.45835 17.3166 9.08335C18.6333 9.95002 18.6333 11.375 17.325 12.25Z" fill="#848484" fill-opacity="0.94"/>
<path opacity="0.4" d="M5.36668 6.47502C5.42502 6.46669 5.48335 6.46669 5.54169 6.47502C6.83335 6.43336 7.85835 5.37502 7.85835 4.07502C7.85835 2.75002 6.78335 1.66669 5.45002 1.66669C4.12502 1.66669 3.04169 2.74169 3.04169 4.07502C3.05002 5.37502 4.07502 6.43336 5.36668 6.47502Z" fill="#848484" fill-opacity="0.94"/>
<path opacity="0.4" d="M5.45831 10.7083C5.45831 11.5167 5.63331 12.2833 5.94998 12.975C4.77498 13.1 3.54998 12.85 2.64998 12.2583C1.33331 11.3833 1.33331 9.95833 2.64998 9.08333C3.54164 8.48333 4.79998 8.24167 5.98331 8.37501C5.64164 9.07501 5.45831 9.86668 5.45831 10.7083Z" fill="#848484" fill-opacity="0.94"/>
<path d="M10.1 13.225C10.0333 13.2167 9.95833 13.2167 9.88333 13.225C8.35 13.175 7.125 11.9167 7.125 10.3667C7.125 8.78334 8.4 7.5 9.99167 7.5C11.575 7.5 12.8583 8.78334 12.8583 10.3667C12.8583 11.9167 11.6417 13.175 10.1 13.225Z" fill="#848484" fill-opacity="0.94"/>
<path d="M7.39169 14.95C6.13335 15.7917 6.13335 17.175 7.39169 18.0083C8.82502 18.9667 11.175 18.9667 12.6084 18.0083C13.8667 17.1667 13.8667 15.7833 12.6084 14.95C11.1834 13.9917 8.83335 13.9917 7.39169 14.95Z" fill="#848484" fill-opacity="0.94"/>
</svg>
