<svg width="24" height="24" viewBox="0 0 24 24" fill="none" xmlns="http://www.w3.org/2000/svg">
<path opacity="0.4" d="M21.99 6.01996C22.01 6.25996 21.99 6.50995 21.93 6.75995L18.56 20.2899C18.32 21.2999 17.42 21.9999 16.38 21.9999H3.23998C1.72998 21.9999 0.66 20.5199 1.1 19.0699L5.30999 5.53992C5.59999 4.59992 6.47001 3.95996 7.45001 3.95996H19.75C20.71 3.95996 21.49 4.52996 21.82 5.32996C21.92 5.53996 21.97 5.77996 21.99 6.01996Z" fill="#035389"/>
<path d="M22.99 19.62C23.09 20.91 22.07 22 20.78 22H16.38C17.42 22 18.32 21.3 18.56 20.29L21.93 6.76001C21.99 6.51001 22.01 6.26002 21.99 6.02002L22 6L22.99 19.62Z" fill="#035389"/>
<path d="M9.67998 7.13001C9.61998 7.13001 9.55999 7.11999 9.49999 7.10999C9.09999 7.00999 8.85 6.61002 8.95 6.20002L9.98998 1.88001C10.09 1.48001 10.49 1.24002 10.9 1.33002C11.3 1.43002 11.55 1.83 11.45 2.24L10.41 6.56C10.33 6.9 10.02 7.13001 9.67998 7.13001Z" fill="#035389"/>
<path d="M16.38 7.14005C16.33 7.14005 16.27 7.14003 16.22 7.12003C15.82 7.03003 15.56 6.63001 15.64 6.23001L16.58 1.89005C16.67 1.48005 17.07 1.23003 17.47 1.31003C17.87 1.40003 18.13 1.80004 18.05 2.20004L17.11 6.54001C17.04 6.90001 16.73 7.14005 16.38 7.14005Z" fill="#035389"/>
<path d="M15.7 12.75H7.70001C7.29001 12.75 6.95001 12.41 6.95001 12C6.95001 11.59 7.29001 11.25 7.70001 11.25H15.7C16.11 11.25 16.45 11.59 16.45 12C16.45 12.41 16.11 12.75 15.7 12.75Z" fill="#035389"/>
<path d="M14.7 16.75H6.70001C6.29001 16.75 5.95001 16.41 5.95001 16C5.95001 15.59 6.29001 15.25 6.70001 15.25H14.7C15.11 15.25 15.45 15.59 15.45 16C15.45 16.41 15.11 16.75 14.7 16.75Z" fill="#035389"/>
</svg>
