<?xml version="1.0" standalone="no"?>
<!DOCTYPE svg PUBLIC "-//W3C//DTD SVG 20010904//EN"
 "http://www.w3.org/TR/2001/REC-SVG-20010904/DTD/svg10.dtd">
<svg version="1.0" xmlns="http://www.w3.org/2000/svg"
 width="852.000000pt" height="224.000000pt" viewBox="0 0 852.000000 224.000000"
 preserveAspectRatio="xMidYMid meet">

<g transform="translate(0.000000,224.000000) scale(0.100000,-0.100000)"
fill="#000000" stroke="none">
<path d="M2010 1220 l0 -590 519 0 c535 0 636 6 716 40 62 27 119 82 146 143
21 45 24 68 24 162 0 101 -2 114 -28 163 -15 29 -45 65 -67 81 l-39 28 25 24
c67 63 96 173 75 285 -22 121 -71 182 -181 227 -54 22 -62 22 -622 25 l-568 3
0 -591z m1045 366 c84 -36 88 -188 5 -231 -24 -13 -89 -15 -410 -15 l-380 0 0
130 0 130 375 0 c302 0 382 -3 410 -14z m38 -479 c44 -28 60 -62 59 -123 0
-60 -17 -93 -59 -121 -25 -16 -65 -18 -425 -21 l-398 -3 0 146 0 146 398 -3
c360 -3 400 -5 425 -21z"/>
<path d="M3600 1220 l0 -590 130 0 130 0 0 590 0 590 -130 0 -130 0 0 -590z"/>
<path d="M4526 1802 c-4 -7 -511 -1130 -523 -1159 -4 -10 28 -13 138 -13 l144
0 55 125 55 125 340 -3 339 -2 55 -122 55 -123 143 0 c120 0 142 2 137 14 -3
8 -122 273 -264 588 l-258 573 -205 3 c-113 1 -208 -1 -211 -6z m329 -438 c61
-135 111 -252 113 -260 3 -12 -33 -14 -232 -14 -164 0 -236 3 -236 11 0 22
224 509 234 509 6 0 61 -111 121 -246z"/>
<path d="M5610 1220 l0 -591 443 3 c417 4 446 5 522 26 224 62 358 188 410
387 22 83 22 270 0 354 -50 193 -177 319 -385 382 -72 22 -91 23 -532 27
l-458 3 0 -591z m845 366 c84 -18 126 -38 175 -82 55 -50 88 -117 100 -207 12
-86 0 -197 -29 -262 -36 -82 -124 -148 -233 -175 -24 -6 -168 -14 -320 -17
l-278 -6 0 382 0 381 263 0 c178 -1 281 -5 322 -14z"/>
<path d="M7566 1802 c-4 -7 -511 -1130 -523 -1159 -4 -10 28 -13 138 -13 l144
0 55 125 55 125 340 -3 339 -2 55 -122 55 -123 143 0 c120 0 142 2 137 14 -3
8 -122 273 -264 588 l-258 573 -205 3 c-113 1 -208 -1 -211 -6z m329 -438 c61
-135 111 -252 113 -260 3 -12 -33 -14 -232 -14 -164 0 -236 3 -236 11 0 22
224 509 234 509 6 0 61 -111 121 -246z"/>
<path d="M40 1688 c0 -57 -9 -409 -20 -783 -10 -374 -18 -680 -17 -681 8 -6
453 69 457 77 7 11 35 1448 28 1454 -4 4 -383 35 -430 35 -16 0 -18 -12 -18
-102z"/>
<path d="M610 1634 c-1 -60 -7 -381 -14 -714 -8 -333 -13 -606 -12 -606 2 -3
459 66 462 69 1 1 5 289 9 639 l7 637 -43 12 c-82 22 -274 59 -341 65 l-68 7
0 -109z"/>
<path d="M1176 1468 c-3 -79 -8 -349 -11 -600 -5 -377 -3 -458 8 -458 35 0
178 82 236 136 109 101 168 205 197 347 55 271 -85 559 -331 680 -100 49 -92
58 -99 -105z"/>
<path d="M3766 386 c-49 -19 -102 -70 -117 -114 -18 -53 -7 -144 21 -186 38
-55 93 -81 170 -81 36 1 82 7 103 14 l37 13 0 94 0 94 -65 0 c-63 0 -65 -1
-65 -25 0 -22 4 -25 40 -25 l40 0 0 -50 c0 -45 -3 -52 -26 -60 -75 -29 -162 2
-196 70 -66 131 76 275 199 201 31 -19 31 -19 49 0 19 21 19 23 -27 49 -31 18
-122 21 -163 6z"/>
<path d="M5206 386 c-49 -19 -102 -70 -117 -114 -18 -53 -7 -144 22 -186 27
-41 108 -86 153 -86 128 0 219 104 202 230 -16 118 -148 197 -260 156z m134
-54 c95 -48 99 -205 7 -263 -45 -28 -127 -22 -163 12 -130 119 1 330 156 251z"/>
<path d="M4430 200 l0 -190 25 0 c25 0 25 1 25 85 l0 85 29 0 c26 0 34 -9 77
-85 43 -76 51 -85 77 -85 35 0 34 3 -27 99 l-46 71 24 9 c58 23 84 104 50 156
-21 33 -64 45 -155 45 l-79 0 0 -190z m186 115 c36 -55 -3 -95 -92 -95 l-44 0
0 60 0 60 60 0 c52 0 61 -3 76 -25z"/>
<path d="M5890 260 c0 -96 4 -140 16 -170 39 -98 164 -119 240 -39 l29 30 3
155 3 156 -23 -4 c-23 -3 -23 -6 -28 -145 -5 -133 -7 -143 -29 -167 -47 -50
-132 -26 -151 43 -5 20 -10 89 -10 154 l0 117 -25 0 -25 0 0 -130z"/>
<path d="M6620 200 l0 -190 25 0 c25 0 25 1 25 84 l0 84 76 4 c69 3 79 6 100
31 28 33 32 95 8 132 -21 33 -64 45 -155 45 l-79 0 0 -190z m186 115 c36 -55
-3 -95 -92 -95 l-44 0 0 60 0 60 60 0 c52 0 61 -3 76 -25z"/>
</g>
</svg>
